<ttFont>
          <CharString index="0">
            318 169 512 rmoveto
            -66 callsubr
            -105 callgsubr
            vhcurveto
            181 -99 -73 callsubr
            return
          </CharString>
          <CharString index="1">
            -136 -8 -100 -116 -170 hhcurveto
            -78 -142 37 160 110 62 78 76 38 hvcurveto
            -21 31 39 -12 42 hhcurveto
            24 55 3 36 26 -33 15 -44 -30 -30 -6 -10 -29 hvcurveto
            -27 28 -16 38 45 vvcurveto
            89 71 71 98 112 31 -73 -59 -17 -2 -13 -1 callgsubr
            -2 rlineto
            1 3 12 18 vvcurveto
            67 -40 85 -123 -111 -107 -65 -129 return
          </CharString>
          <CharString index="2">
            hvcurveto
            -3 20 rlineto
            -3 -16 -16 -2 -14 hhcurveto
            -143 -45 112 169 -9 hvcurveto
            33 33 0 1 4 callgsubr
            vlineto
            -1 -23 -38 0 -41 hhcurveto
            -1 19 0 21 21 136 -90 callsubr
            -62 -36 -195 -1 -178 hvcurveto
            -191 hlineto
            -43 callsubr
            return
          </CharString>
          <CharString index="3">
            -72 callgsubr
            rrcurveto
            103 -24 -60 94 -127 hhcurveto
            -92 -92 -62 -109 -86 79 -59 100 -68 callgsubr
            -186 -92 166 194 -73 callgsubr
            -199 128 -151 185 return
          </CharString>
          <CharString index="4">
            40 403 -1 callsubr
            -102 callgsubr
            48 30 48 144 54 hvcurveto
            return
          </CharString>
          <CharString index="5">
            456 390 213 rmoveto
            14 14 0 2 14 hvcurveto
            24 -40 15 -52 13 -59 rrcurveto
            -145 31 26 -140 158 hhcurveto
            70 52 40 47 48 hvcurveto
            -12 14 rlineto
            -38 -42 -41 -17 -39 hhcurveto
            -165 -21 189 145 -60 hvcurveto
            -9 22 -10 19 -11 18 rrcurveto
            135 23 129 89 162 vvcurveto
            170 -160 71 -161 -279 -108 -143 -6 -5 vhcurveto
            16 -11 rlineto
            1 1 106 140 269 hhcurveto
            96 163 -53 -169 -141 -102 -92 -112 -23 hvcurveto
            -37 51 -49 31 -72 3 rrcurveto
            -1 16 0 17 15 156 50 104 1 vvcurveto
            -17 8 rlineto
            -2 -85 -154 -168 hvcurveto
            -28 -7 -19 -14 -18 vvcurveto
            -19 21 -14 30 -10 vhcurveto
            5 -58 8 -54 -46 vvcurveto
            -66 -21 -67 -85 -39 -46 15 31 -50 vhcurveto
            -10 -16 rlineto
            -37 59 48 -12 38 hhcurveto
            102 53 99 147 16 -1 17 -1 17 hvcurveto
            -5 33 34 -2 25 hhcurveto
            -99 89 rmoveto
            60 -3 40 -26 30 -41 rrcurveto
            -1 -10 -10 0 -9 hhcurveto
            -38 -32 2 5 -25 hvcurveto
            -2 21 -3 22 -1 21 rrcurveto
            -55 -47 rmoveto
            -21 9 -9 9 5 vvcurveto
            7 11 7 17 4 vhcurveto
            -14 1 -14 1 -13 vhcurveto
            return
          </CharString>
          <CharString index="6">
            346 -104 rmoveto
            208 76 196 215 -33 callsubr
            hvcurveto
            -93 callgsubr
            -223 143 -69 148 vhcurveto
            return
          </CharString>
          <CharString index="7">
            -37 153 -88 callsubr
            -63 -74 -68 -117 -97 59 -46 67 hvcurveto
            12 309 -75 callgsubr
            return
          </CharString>
          <CharString index="8">
            -139 -49 -28 -49 -35 hhcurveto
            -26 -12 25 39 40 8 56 21 97 hvcurveto
            -17 4 -7 -12 -31 -58 -12 -75 rlinecurve
            -81 -33 -37 -48 -8 callsubr
            -24 38 61 80 36 106 1 3 callgsubr
            0 -60 -86 -106 vvcurveto
            -105 58 -14 32 40 35 21 73 40 vhcurveto
            return
          </CharString>
          <CharString index="9">
            326 263 -14 rmoveto
            -109 -55 93 169 270 227 199 2 2 1 callgsubr
            -48 -39 -227 -190 -296 vvcurveto
            -177 94 -77 103 94 78 62 84 62 vhcurveto
            -6 -1 -7 -6 vvcurveto
            -223 -18 13 -203 -186 hhcurveto
            -115 -45 66 77 33 7 25 0 hvcurveto
            -19 6 rlineto
            -1 -2 -7 -27 -34 vvcurveto
            -85 51 -78 129 260 -12 414 155 8 vhcurveto
            71 138 37 153 49 vvcurveto
            29 -13 2 -6 -31 -81 -81 -352 -36 vhcurveto
            -90 -59 -73 -67 -81 hhcurveto
            361 560 rmoveto
            -55 -31 -118 -53 -114 vhcurveto
            192 17 39 106 25 hhcurveto
            3 0 -5 -6 hvcurveto
            return
          </CharString>
          <CharString index="10">
            8 65 2 callgsubr
            6 16 4 9 9 11 rrcurveto
            6 5 14 14 35 18 19 -1 12 hhcurveto
            10 24 1 6 11 hvcurveto
            -2 -35 -26 -102 -71 -73 rrcurveto
            1 -6 -6 1 -5 hhcurveto
            -32 -2 -17 -4 -10 7 -9 16 8 10 3 9 13 hvcurveto
            17 -18 7 -30 -32 vvcurveto
            -1 -1 -1 0 -1 vvcurveto
            -91 -57 -70 -68 -68 vvcurveto
            -44 23 -29 39 49 91 83 172 vhcurveto
            15 vlineto
            97 69 47 63 47 120 -18 callsubr
            -39 -102 -48 -70 -87 -63 -7 48 -18 16 -15 10 rrcurveto
            37 33 90 113 110 vvcurveto
            4 -5 5 -5 -2 -2 0 -2 -2 vhcurveto
            -26 -30 -26 -6 -25 -22 -20 4 -22 hhcurveto
            -12 -51 -4 -20 -3 hvcurveto
            -4 -25 -3 -12 -4 -13 rrcurveto
            1 -500 rmoveto
            -23 -8 29 17 56 57 58 82 53 hvcurveto
            1 1 1 1 2 1 rrcurveto
            -118 -8 -60 -98 -44 hhcurveto
            return
          </CharString>
          <CharString index="11">
            325 233 -1 rmoveto
            94 89 52 66 66 hvcurveto
            -25 2 -23 -22 -15 callgsubr
            -73 -17 52 26 39 18 35 53 2 vhcurveto
            -2 19 rlineto
            -68 -4 -20 -46 -45 vvcurveto
            -47 37 -50 73 167 47 112 104 56 -18 52 -5 76 vhcurveto
            51 60 32 67 49 vvcurveto
            26 -17 5 -9 -32 -47 -62 -150 -3 vhcurveto
            -64 -61 -83 -47 -71 hhcurveto
            -55 callsubr
            hvcurveto
            -60 callsubr
            vhcurveto
            273 186 rmoveto
            -16 callsubr
            -50 -26 -55 -39 -48 vhcurveto
            return
          </CharString>
          <CharString index="12">
            105 65 2 callgsubr
            -56 callsubr
            60 239 76 hhcurveto
            14 8 -10 -20 hvcurveto
            -26 -20 -57 -48 vvcurveto
            -43 21 -34 41 74 37 120 69 27 -31 callgsubr
            -21 -8 -43 -148 -58 hhcurveto
            -24 -12 18 32 hvcurveto
            28 16 45 43 vvcurveto
            53 -32 13 -17 -38 -37 -53 callsubr
            return
          </CharString>
          <CharString index="13">
            -76 callsubr
            -111 70 -53 80 -86 callgsubr
            return
          </CharString>
          <CharString index="14">
            -12 callgsubr
            -9 -12 -53 -49 -72 hhcurveto
            -77 -116 37 185 156 121 67 89 151 81 -152 -147 -277 -131 -124 -116 -92 -24 56 12 -6 hvcurveto
            -17 -9 rlineto
            return
          </CharString>
          <CharString index="15">
            rmoveto
            16 13 17 21 25 vvcurveto
            18 -10 13 -17 -31 callsubr
            -17 12 -7 15 vhcurveto
            -10 -6 -12 -13 -10 vhcurveto
            endchar
          </CharString>
          <CharString index="16">
            -15 9 rlineto
            -93 -56 -101 -67 -107 hhcurveto
            -183 -104 149 174 258 178 136 119 23 22 -6 -9 19 hvcurveto
            -72 -41 -62 -71 -87 vvcurveto
            -78 56 -36 53 73 54 71 99 60 -25 47 -36 31 vhcurveto
            18 10 20 9 20 7 rrcurveto
            -16 -163 rmoveto
            -61 -34 -91 -70 -42 -26 34 47 89 49 66 64 42 vhcurveto
            36 -28 23 -45 -53 vvcurveto
            return
          </CharString>
          <CharString index="17">
            14 221 21 vvcurveto
            18 -10 10 -15 -13 -8 -5 -14 -8 vhcurveto
            -18 -30 -105 -208 -103 -211 rrcurveto
            -119 hlineto
            371 0 callgsubr
            3 2 -2 -10 return
          </CharString>
          <CharString index="18">
            -136 102 -81 callgsubr
            rlineto
            -44 -86 -16 -71 -44 vvcurveto
            -67 30 -33 41 vhcurveto
            return
          </CharString>
          <CharString index="19">
            7 rmoveto
            119 48 163 64 25 -46 callgsubr
            -80 callgsubr
            return
          </CharString>
          <CharString index="20">
            272 144 507 rmoveto
            96 77 71 100 108 50 -46 -71 vhcurveto
            -62 -36 -65 -1 vvcurveto
            22 -12 rlineto
            2 4 38 67 69 vvcurveto
            85 -62 58 -121 -120 -92 -89 -129 vhcurveto
            -231 388 41 -208 vvcurveto
            -92 -89 -74 -138 -80 -131 37 105 70 51 27 2 1 vhcurveto
            -11 23 rlineto
            -4 -1 -63 -34 -86 vvcurveto
            -98 108 -70 127 return
          </CharString>
          <CharString index="21">
            -87 callsubr
            145 129 73 159 vhcurveto
            -15 callsubr
            return
          </CharString>
          <CharString index="22">
            rmoveto
            -31 -59 -56 -92 -47 hvcurveto
            -10 -3 -9 -3 -10 -2 rrcurveto
            -233 -53 -122 -74 -153 vvcurveto
            -139 116 -73 110 -6 vhcurveto
            3 12 rlineto
            -51 10 -117 35 153 vvcurveto
            167 111 49 200 56 vhcurveto
            -36 -77 -27 -100 -113 -152 41 -149 -159 vvcurveto
            -108 -56 -128 -146 -100 -63 79 89 -8 vhcurveto
            -32 -10 rlineto
            -99 9 84 -78 110 hhcurveto
            186 64 197 163 hvcurveto
            118 -25 135 140 vvcurveto
            114 15 87 22 63 vhcurveto
            75 30 62 62 40 vvcurveto
            14 -8 14 -18 vhcurveto
            -19 vmoveto
            6 0 -5 -4 -26 -38 -48 -69 -32 hvcurveto
            81 33 43 34 25 hhcurveto
            return
          </CharString>
          <CharString index="23">
            -45 callgsubr
            rlineto
            -24 17 31 -8 27 -81 callsubr
            return
          </CharString>
          <CharString index="24">
            -87 -65 393 rmoveto
            21 -14 38 -18 56 -7 rrcurveto
            -4 -31 -2 -33 -36 vvcurveto
            -43 callgsubr
            14 28 19 40 16 42 71 4 55 18 53 20 -9 18 rcurveline
            -40 -16 -57 -18 -65 -6 rrcurveto
            20 55 17 57 37 -6 callsubr
            -35 -42 -75 -117 -18 vhcurveto
            -54 6 -36 20 -19 12 rrcurveto
            207 128 rmoveto
            4 callsubr
            -27 -14 -60 -23 -65 hvcurveto
            -24 hlineto
            -9 hlineto
            125 14 39 43 12 hhcurveto
            -69 -256 rmoveto
            25 1 23 1 21 vhcurveto
            10 hlineto
            18 hlineto
            -9 -24 -10 -23 -11 -23 rrcurveto
            return
          </CharString>
          <CharString index="25">
            rmoveto
            -90 88 -87 -88 10 -10 77 62 80 -62 rlineto
            endchar
          </CharString>
          <CharString index="26">
            hhcurveto
            102 52 -49 callsubr
            vvcurveto
            87 -95 54 -15 53 vhcurveto
            5 11 36 19 vvcurveto
            13 -4 19 -18 -16 -13 -34 -21 -16 5 -6 6 -18 vhcurveto
            -13 -53 -12 -41 -17 -41 4 -4 rcurveline
            31 36 11 35 14 38 rrcurveto
            return
          </CharString>
          <CharString index="27">
            667 47 207 rmoveto
            110 hlineto
            -206 -102 -114 -68 -69 callsubr
            55 53 0 1 95 hvcurveto
            -2 -31 -1 -26 -19 vvcurveto
            -102 74 -106 169 -105 callgsubr
            -25 callgsubr
            -54 -27 -49 -43 -33 -53 rrcurveto
            148 -90 callsubr
            -66 -23 -223 -9 -145 hvcurveto
            -1 -53 -75 0 -68 hhcurveto
            -43 callsubr
            281 -260 -73 callsubr
            return
          </CharString>
          <CharString index="28">
            74 52 39 65 31 hvcurveto
            -53 70 58 -72 121 hhcurveto
            154 69 101 97 67 -38 41 -2 3 hvcurveto
            -12 -9 rlineto
            14 -20 4 -28 -18 vvcurveto
            -100 -85 -114 -121 -94 -59 69 53 -72 vhcurveto
            17 42 8 52 59 return
          </CharString>
          <CharString index="29">
            -86 -57 -82 -81 -88 63 -47 63 88 39 85 75 82 -45 34 -38 -28 -21 -17 -31 -10 hvcurveto
            16 -4 rlineto
            27 8 12 11 24 hhcurveto
            29 37 -27 -75 -88 -45 -54 -53 -59 -37 44 83 89 38 51 62 hvcurveto
            12 8 -4 1 hhcurveto
            4 13 rlineto
            -1 -9 4 -15 hhcurveto
            return
          </CharString>
          <CharString index="30">
            215 615 rmoveto
            -29 callsubr
            -11 callgsubr
            -31 callgsubr
            -116 -42 -38 -75 -39 -29 callgsubr
            -141 -281 -54 callsubr
            return
          </CharString>
          <CharString index="31">
            3 163 254 rmoveto
            -35 26 -13 16 30 27 30 53 24 -8 20 -12 14 vhcurveto
            4 4 4 3 4 4 -11 15 rcurveline
            -5 -5 -5 -4 -5 -4 rrcurveto
            9 -14 -17 5 -18 hhcurveto
            -63 -83 -85 -112 return
          </CharString>
          <CharString index="32">
            20 53 -77 rmoveto
            18 37 15 32 15 29 rrcurveto
            -8 16 18 -4 17 hhcurveto
            70 42 51 64 18 hvcurveto
            -71 callgsubr
            70 -18 40 -24 21 vhcurveto
            15 32 17 36 20 40 -18 8 rcurveline
            -19 -39 -17 -35 -15 -31 rrcurveto
            6 -12 -13 3 -12 hhcurveto
            -58 -24 -52 -46 -37 12 -31 20 -24 hvcurveto
            -15 -32 -15 -32 -17 -37 rrcurveto
            -24 21 -17 37 58 vvcurveto
            54 29 57 29 27 vhcurveto
            -42 callgsubr
            -63 23 -42 32 -24 vhcurveto
            -15 -30 -15 -33 -18 -38 rrcurveto
            239 278 rmoveto
            -33 callgsubr
            -33 -31 11 20 -22 hvcurveto
            21 44 22 47 27 58 18 -19 12 -35 2 -58 rrcurveto
            -106 -165 rmoveto
            -17 -17 4 8 -16 hvcurveto
            16 34 14 32 15 31 rrcurveto
            -20 25 32 -11 36 hhcurveto
            -52 callsubr
            10 11 -2 -5 9 hvcurveto
            -26 -54 -21 -45 -22 -45 rrcurveto
            -14 20 -9 26 30 vvcurveto
            44 27 31 35 vhcurveto
            return
          </CharString>
          <CharString index="33">
            rmoveto
            27 27 23 42 35 vvcurveto
            26 -14 19 -24 -20 -15 -15 -20 -16 11 -18 22 3 4 0 1 3 vhcurveto
            -1 -20 -16 -28 -17 -22 rrcurveto
            return
          </CharString>
          <CharString index="34">
            rmoveto
            -39 callgsubr
            -56 callgsubr
            return
          </CharString>
          <CharString index="35">
            18 131 -231 rmoveto
            76 86 45 180 hvcurveto
            33 -1 50 34 vvcurveto
            151 34 84 4 8 vhcurveto
            -18 9 -5 -10 -8 -17 -9 -26 rlinecurve
            25 -12 -24 29 -42 hhcurveto
            -100 -89 -117 -103 -100 54 -29 50 57 42 27 38 28 hvcurveto
            return
          </CharString>
          <CharString index="36">
            0 31 18 60 14 vhcurveto
            5 -90 7 -82 -28 vvcurveto
            -133 -31 -132 -151 -63 -60 26 46 -42 vhcurveto
            -14 -13 rlineto
            -50 45 66 -28 69 hhcurveto
            190 47 148 185 52 -3 55 -4 56 hvcurveto
            4 30 35 3 39 37 55 -5 32 hhcurveto
            26 24 0 2 22 hvcurveto
            4 -189 77 -117 2 vvcurveto
            15 8 -28 54 -12 157 -2 90 rlinecurve
            56 7 27 10 3 2 -6 18 rcurveline
            -1 -22 -10 -7 -57 hvcurveto
            4 vlineto
            return
          </CharString>
          <CharString index="37">
            58 -7 61 54 vvcurveto
            66 15 55 20 42 vhcurveto
            -3 12 13 -1 12 hhcurveto
            158 54 140 2 3 callgsubr
            -6 -3 -48 -123 -143 hhcurveto
            -10 -9 1 1 -10 hvcurveto
            34 62 42 32 9 5 -11 16 rcurveline
            -1 -2 -54 -34 -48 -72 rrcurveto
            28 -90 -91 81 -124 hhcurveto
            return
          </CharString>
          <CharString index="38">
            -1 hhcurveto
            8 -17 55 19 74 31 98 215 rlinecurve
            4 9 4 8 4 9 rrcurveto
            return
          </CharString>
          <CharString index="39">
            13 10 10 12 13 -10 10 -13 return
          </CharString>
          <CharString index="40">
            140 503 -1 callsubr
            -76 -31 -37 -103 -80 hhcurveto
            -54 -36 -70 callgsubr
            -27 -27 -13 -23 -22 hvcurveto
            3 9 4 8 3 8 -16 5 rcurveline
            -6 -12 -6 -11 -5 -10 rrcurveto
            19 -13 -24 7 -23 hhcurveto
            -63 -104 -78 -121 -85 49 -39 53 36 31 15 42 26 hvcurveto
            3 -17 5 -15 7 -15 17 4 rcurveline
            -2 11 -1 14 19 vvcurveto
            -32 21 35 -18 38 hhcurveto
            108 39 122 75 31 hvcurveto
            -382 -185 rmoveto
            -40 -26 36 67 126 82 55 41 22 18 -11 -21 5 hvcurveto
            -22 -53 -7 -40 -40 vvcurveto
            -19 1 -19 2 -16 vhcurveto
            -37 -19 -26 -28 -31 hhcurveto
            213 297 -75 callgsubr
            return
          </CharString>
          <CharString index="41">
            -25 callgsubr
            -99 -49 -80 -102 -116 vvcurveto
            -135 113 -73 128 return
          </CharString>
          <CharString index="42">
            rmoveto
            -79 -62 -77 62 -11 -11 88 -87 89 87 rlineto
            endchar
          </CharString>
          <CharString index="43">
            rmoveto
            -13 11 -11 13 13 11 11 13 13 -11 11 -13 -31 callsubr
            vhcurveto
            endchar
          </CharString>
          <CharString index="44">
            rlineto
            2 6 5 0 6 hhcurveto
            14 24 -5 -21 -16 -14 -10 -20 -17 -21 8 7 -11 hvcurveto
            -7 -16 rlineto
            -8 15 19 -8 24 hhcurveto
            33 24 13 30 26 -28 14 -29 hvcurveto
            return
          </CharString>
          <CharString index="45">
            rmoveto
            -26 20 -20 26 26 19 20 26 26 -19 19 -26 -26 -20 -19 -26 vhcurveto
            18 hmoveto
            16 12 12 16 16 12 -12 -16 -16 -12 -12 -16 -16 -12 12 16 vhcurveto
            endchar
          </CharString>
          <CharString index="46">
            389 199 -48 rmoveto
            6 6 0 1 6 hvcurveto
            -74 callgsubr
            239 30 136 11 56 vhcurveto
            -14 3 rlineto
            -22 -43 -60 -112 -218 -52 callgsubr
            vhcurveto
            return
          </CharString>
          <CharString index="47">
            -12 callgsubr
            -7 -10 -27 -21 -51 vvcurveto
            -52 37 -34 61 104 104 111 93 63 -47 37 -70 -200 -251 -262 -207 -134 67 -63 122 return
          </CharString>
          <CharString index="48">
            -21 callgsubr
            -16 -16 -19 -20 16 -30 callgsubr
            return
          </CharString>
          <CharString index="49">
            359 557 701 rmoveto
            -25 -4 -26 -8 -26 -12 rrcurveto
            15 -25 -29 9 -29 hhcurveto
            -160 -196 -151 -279 return
          </CharString>
          <CharString index="50">
            hhcurveto
            -23 -19 13 61 73 31 91 8 33 hvcurveto
            -18 5 return
          </CharString>
          <CharString index="51">
            44 16 16 37 24 hhcurveto
            14 4 -11 -40 -58 -12 -98 -15 -77 hvcurveto
            28 -5 rlineto
            18 9 return
          </CharString>
          <CharString index="52">
            -87 -75 43 125 194 173 253 216 64 35 -27 -52 -85 -94 -100 -95 -54 -25 30 36 47 27 20 1 1 return
          </CharString>
          <CharString index="53">
            -37 callsubr
            -159 -49 -98 vhcurveto
            -1 22 0 24 25 vvcurveto
            return
          </CharString>
          <CharString index="54">
            -30 -86 -41 vhcurveto
            2 22 2 24 19 vvcurveto
            73 -33 11 -18 -37 -24 -46 -50 -20 vhcurveto
            return
          </CharString>
          <CharString index="55">
            4 hlineto
            -50 -19 -37 -28 -36 hhcurveto
            28 1 callsubr
            return
          </CharString>
          <CharString index="56">
            rmoveto
            31 31 9 15 30 hvcurveto
            -14 33 33 -14 35 hhcurveto
            11 11 2 3 12 hvcurveto
            -4 16 rlineto
            -2 -10 -10 -1 -10 hhcurveto
            -28 -28 10 11 -27 hvcurveto
            81 50 63 96 85 vvcurveto
            105 -90 32 -72 -87 -63 -62 -73 -20 6 -21 10 -17 vhcurveto
            0 22 10 7 4 vhcurveto
            -13 19 -4 20 -1 18 rrcurveto
            53 -3 54 52 72 hhcurveto
            55 64 -31 -84 -89 -48 -94 -72 -45 hvcurveto
            13 -31 -30 13 -31 hhcurveto
            -34 -24 -15 -20 -19 19 -15 40 hvcurveto
            return
          </CharString>
          <CharString index="57">
            rmoveto
            -39 -32 28 41 62 54 9 20 48 38 -15 -20 33 hvcurveto
            -64 -18 -41 -41 -63 hhcurveto
            return
          </CharString>
          <CharString index="58">
            113 113 0 callsubr
            -29 -73 -45 -107 -58 -23 rlinecurve
            20 14 13 24 41 return
          </CharString>
          <CharString index="59">
            18 -19 22 -33 -23 -20 -15 -22 -21 21 -18 28 26 20 13 23 vhcurveto
            return
          </CharString>
          <CharString index="60">
            -50 callgsubr
            endchar
          </CharString>
          <CharString index="61">
            -7 -5 -7 -5 -7 -4 rrcurveto
            -71 -39 -62 -44 -82 -2 callsubr
            49 71 68 175 6 vhcurveto
            20 vlineto
            -54 callgsubr
            61 43 43 65 38 hvcurveto
            6 4 6 4 7 5 rrcurveto
            -7 vlineto
            -1 -41 -3 -34 -7 -25 rrcurveto
            return
          </CharString>
          <CharString index="62">
            rmoveto
            -72 5 69 -37 72 hhcurveto
            92 68 53 83 92 -83 27 -64 -17 -16 -2 -4 -11 hvcurveto
            36 28 78 66 39 66 -8 8 rcurveline
            -9 -34 -46 -2 -40 hhcurveto
            -49 -39 3 1 -1 hvcurveto
            6 -38 rlineto
            71 59 9 9 36 hvcurveto
            -39 -64 -48 -42 -48 -35 5 -20 rcurveline
            2 15 15 2 13 hhcurveto
            83 46 -44 -62 -86 -77 -22 -52 -70 -45 44 47 -3 hvcurveto
            -18 -1 rlineto
            endchar
          </CharString>
          <CharString index="63">
            -100 -63 -104 -96 -92 50 -39 53 47 44 36 55 38 hvcurveto
            -43 11 21 -26 41 hhcurveto
            66 36 97 100 37 -46 callgsubr
            -128 -46 -30 -48 -38 hhcurveto
            -27 -18 14 74 -5 hvcurveto
            return
          </CharString>
          <CharString index="64">
            263 121 88 184 14 hhcurveto
            return
          </CharString>
          <CharString index="65">
            166 162 119 170 6 return
          </CharString>
          <CharString index="66">
            -19 5 rlineto
            return
          </CharString>
          <CharString index="67">
            hhcurveto
            -122 -84 69 89 5 0 5 1 6 hvcurveto
            -19 2 rlineto
            -1 -6 0 -7 -6 vvcurveto
            -100 91 -76 140 return
          </CharString>
          <CharString index="68">
            16 -13 17 -25 -23 -68 -27 -98 -46 vhcurveto
            -1 -3 -4 -1 -3 hhcurveto
            -117 -19 -117 -7 -57 -101 18 -7 rcurveline
            47 77 82 18 143 19 rrcurveto
            2 hlineto
            return
          </CharString>
          <CharString index="69">
            rmoveto
            -87 -88 9 -12 101 74 rlineto
            64 26 rmoveto
            -94 -88 9 -12 106 72 rlineto
            endchar
          </CharString>
          <CharString index="70">
            rmoveto
            188 42 135 50 25 5 -28 -19 -90 -72 return
          </CharString>
          <CharString index="71">
            -5 -8 -24 -9 -22 hhcurveto
            -15 -17 8 23 return
          </CharString>
          <CharString index="72">
            rmoveto
            -36 callsubr
            return
          </CharString>
          <CharString index="73">
            rmoveto
            -27 -27 -23 -42 -35 vvcurveto
            -26 14 -19 24 20 15 15 20 16 -11 18 -22 -3 -4 0 -1 -3 vhcurveto
            1 20 16 28 17 22 rrcurveto
            return
          </CharString>
          <CharString index="74">
            191 -20 126 -46 160 return
          </CharString>
          <CharString index="75">
            83 216 135 rmoveto
            2 43 0 44 45 vvcurveto
            47 44 1 2 40 hvcurveto
            20 vlineto
            2 -43 -43 0 -45 hhcurveto
            44 -1 43 -1 45 vhcurveto
            -20 hlineto
            -2 -47 -1 -43 -42 vvcurveto
            -44 -44 -1 -1 -45 hvcurveto
            -20 vlineto
            -2 48 44 -1 41 hhcurveto
            -47 1 -44 2 -41 vhcurveto
            return
          </CharString>
          <CharString index="76">
            -13 -11 -11 -13 return
          </CharString>
          <CharString index="77">
            160 232 -16 12 rcurveline
            -154 -225 return
          </CharString>
          <CharString index="78">
            -26 callsubr
            -96 1 -198 97 return
          </CharString>
          <CharString index="79">
            rmoveto
            21 -132 -21 vlineto
            endchar
          </CharString>
          <CharString index="80">
            vvcurveto
            -33 0 -90 -43 -50 -25 77 -26 callgsubr
            return
          </CharString>
          <CharString index="81">
            33 -15 28 -39 -82 -46 -182 -178 return
          </CharString>
          <CharString index="82">
            rrcurveto
            32 -15 -19 21 -20 -9 callsubr
            4 hlineto
            14 -47 11 -70 -72 -27 callsubr
            return
          </CharString>
          <CharString index="83">
            -93 4 -77 -23 callgsubr
            75 -8 callgsubr
            return
          </CharString>
          <CharString index="84">
            -35 -39 -20 -12 10 9 -6 vhcurveto
            -16 -11 return
          </CharString>
          <CharString index="85">
            -2 callgsubr
            -13 -18 callgsubr
            22 -5 callsubr
            return
          </CharString>
          <CharString index="86">
            rmoveto
            -93 4 -97 -23 callgsubr
            95 -8 callgsubr
            return
          </CharString>
          <CharString index="87">
            rmoveto
            -174 144 -17 -22 148 -122 -148 -122 17 -22 rlineto
            return
          </CharString>
          <CharString index="88">
            rmoveto
            10 6 -9 -8 -39 -53 -25 -57 -16 hvcurveto
            61 26 36 36 32 hhcurveto
            return
          </CharString>
          <CharString index="89">
            -19 5 rcurveline
            return
          </CharString>
          <CharString index="90">
            -147 93 340 rmoveto
            -18 6 -30 -106 -21 -40 -12 -253 rlinecurve
            return
          </CharString>
          <CharString index="91">
            72 38 76 20 4 3 -4 -7 return
          </CharString>
          <CharString index="92">
            219 -400 -18 182 vvcurveto
            return
          </CharString>
          <CharString index="93">
            vvcurveto
            62 10 56 16 44 vhcurveto
            58 15 80 32 58 vvcurveto
            return
          </CharString>
          <CharString index="94">
            -41 callsubr
            -76 -29 -35 -104 -55 hhcurveto
            return
          </CharString>
          <CharString index="95">
            rmoveto
            -59 -15 -118 -86 -28 -70 12 133 85 43 66 63 60 33 -67 -52 vhcurveto
            endchar
          </CharString>
          <CharString index="96">
            rlinecurve
            25 -22 -29 10 -27 hhcurveto
            -95 -46 -120 -83 -101 54 -46 59 107 35 126 87 return
          </CharString>
          <CharString index="97">
            rmoveto
            -21 callgsubr
            -17 -16 -19 -20 17 6 callgsubr
          </CharString>
          <CharString index="98">
            hhcurveto
            -16 -12 -14 -18 -24 28 -19 31 hvcurveto
            return
          </CharString>
          <CharString index="99">
            -39 hhcurveto
            -35 return
          </CharString>
          <CharString index="100">
            13 -11 11 -14 -31 callsubr
            -14 11 -11 13 14 11 11 14 vhcurveto
            return
          </CharString>
          <CharString index="101">
            vvcurveto
            26 -8 17 -20 return
          </CharString>
          <CharString index="102">
            -36 55 hhcurveto
            33 28 24 13 15 hvcurveto
            return
          </CharString>
          <CharString index="103">
            hhcurveto
            84 182 -24 -177 -220 -193 -84 -157 hvcurveto
            return
          </CharString>
          <CharString index="104">
            vvcurveto
            -48 44 rmoveto
            22 6 -23 -21 return
          </CharString>
          <CharString index="105">
            vvcurveto
            -47 34 -29 40 return
          </CharString>
          <CharString index="106">
            239 rmoveto
            return
          </CharString>
          <CharString index="107">
            44 hvcurveto
            -19 5 return
          </CharString>
          <CharString index="108">
            296 rmoveto
            return
          </CharString>
          <CharString index="109">
            vvcurveto
            -26 callsubr
            return
          </CharString>
          <CharString index="110">
            rmoveto
            8 5 4 5 return
          </CharString>
          <CharString index="111">
            4 1 -6 -10 return
          </CharString>
          <CharString index="112">
            vvcurveto
            -48 18 -39 39 50 24 50 104 return
          </CharString>
          <CharString index="113">
            -149 -185 -185 -149 return
          </CharString>
        <CharString name=".notdef">
          -67 endchar
        </CharString>
        <CharString name="A">
          -107 callgsubr
          endchar
        </CharString>
        <CharString name="AE">
          -80 callsubr
          endchar
        </CharString>
        <CharString name="AEacute">
          -80 callsubr
          -93 424 -79 callgsubr
        </CharString>
        <CharString name="Aacute">
          -107 callgsubr
          51 163 -79 callgsubr
        </CharString>
        <CharString name="Abreve">
          -107 callgsubr
          63 147 -84 callgsubr
        </CharString>
        <CharString name="Acircumflex">
          -107 callgsubr
          96 73 -82 callsubr
        </CharString>
        <CharString name="Adieresis">
          -107 callgsubr
          -64 100 -96 callgsubr
        </CharString>
        <CharString name="Agrave">
          -107 callgsubr
          -56 134 -55 callgsubr
        </CharString>
        <CharString name="Amacron">
          -107 callgsubr
          73 88 -28 callsubr
        </CharString>
        <CharString name="Aogonek">
          -91 callgsubr
          7 8 0 1 8 hvcurveto
          -21 -18 -31 -26 -31 vvcurveto
          -38 30 -6 24 22 28 13 10 16 vhcurveto
          -5 12 rlineto
          -36 callsubr
          34 44 35 40 12 -105 callsubr
          endchar
        </CharString>
        <CharString name="Aring">
          -107 callgsubr
          -29 99 -62 callsubr
        </CharString>
        <CharString name="Atilde">
          -107 callgsubr
          40 100 -88 callgsubr
        </CharString>
        <CharString name="B">
          347 285 27 rmoveto
          -12 75 -7 69 62 vvcurveto
          26 1 24 1 23 vhcurveto
          57 54 13 21 48 hvcurveto
          70 -27 56 -52 -93 vvcurveto
          -157 -187 -79 -126 -163 -43 92 59 33 16 61 49 18 vhcurveto
          -6 15 rlineto
          -57 -20 -36 -48 -57 vvcurveto
          -89 75 -83 165 198 172 107 153 95 -63 58 -88 31 vhcurveto
          78 44 52 66 62 vvcurveto
          141 -158 48 -127 -189 -95 -117 -6 -4 vhcurveto
          15 -12 rlineto
          1 1 88 115 190 hhcurveto
          51 167 -26 -146 -70 -49 -54 -61 -34 hvcurveto
          11 -45 -49 5 -49 hhcurveto
          -1 hlineto
          13 119 26 67 5 15 -18 6 rcurveline
          -2 -54 -80 -21 -128 vhcurveto
          -46 -5 -28 -13 -19 vvcurveto
          -19 23 -13 43 -5 vhcurveto
          -1 -11 0 -11 -11 vvcurveto
          -75 13 -85 37 -91 vhcurveto
          3 302 rmoveto
          1 14 1 13 1 13 rrcurveto
          3 hlineto
          34 39 -4 -9 37 hvcurveto
          -40 -17 -42 -9 -34 -1 rrcurveto
          -98 18 rmoveto
          4 14 10 37 5 vhcurveto
          -2 -11 -1 -12 -1 -12 rrcurveto
          -34 4 -13 8 4 vvcurveto
          endchar
        </CharString>
        <CharString name="C">
          -95 callgsubr
          endchar
        </CharString>
        <CharString name="Cacute">
          -95 callgsubr
          -102 316 -79 callgsubr
        </CharString>
        <CharString name="Ccaron">
          -95 callgsubr
          -67 314 -65 callsubr
        </CharString>
        <CharString name="Ccedilla">
          -58 callsubr
          -205 132 -133 181 -2 hvcurveto
          -19 -57 -63 callsubr
          13 41 123 5 112 69 60 111 rlinecurve
          -91 callsubr
          endchar
        </CharString>
        <CharString name="Ccircumflex">
          -95 callgsubr
          -57 226 -82 callsubr
        </CharString>
        <CharString name="Cdotaccent">
          -95 callgsubr
          -170 255 -64 callsubr
        </CharString>
        <CharString name="D">
          -61 callsubr
          endchar
        </CharString>
        <CharString name="Dcaron">
          -61 callsubr
          268 900 -65 callsubr
        </CharString>
        <CharString name="Dcroat">
          -65 callgsubr
        </CharString>
        <CharString name="E">
          -107 callsubr
          endchar
        </CharString>
        <CharString name="Eacute">
          -107 callsubr
          67 433 -79 callgsubr
        </CharString>
        <CharString name="Ebreve">
          -107 callsubr
          79 417 -84 callgsubr
        </CharString>
        <CharString name="Ecaron">
          -107 callsubr
          102 431 -65 callsubr
        </CharString>
        <CharString name="Ecircumflex">
          -107 callsubr
          112 343 -82 callsubr
        </CharString>
        <CharString name="Edieresis">
          -107 callsubr
          -48 370 -96 callgsubr
        </CharString>
        <CharString name="Edotaccent">
          -107 callsubr
          -1 372 -64 callsubr
        </CharString>
        <CharString name="Egrave">
          -107 callsubr
          -40 404 -55 callgsubr
        </CharString>
        <CharString name="Emacron">
          -107 callsubr
          89 358 -28 callsubr
        </CharString>
        <CharString name="Eng">
          -61 callgsubr
          70 48 53 76 27 hvcurveto
          -297 -30 -108 -64 -91 hhcurveto
          -58 -52 12 71 -46 hvcurveto
          -14 -10 rlineto
          -70 39 51 -49 83 hhcurveto
          191 62 214 374 -85 callgsubr
          endchar
        </CharString>
        <CharString name="Eogonek">
          318 483 -127 -35 callsubr
          27 41 36 23 15 hvcurveto
          89 60 61 74 4 111 -19 1 rcurveline
          -106 callsubr
          -66 callsubr
          63 36 13 15 40 vhcurveto
          -30 -20 -21 -23 -26 -35 callgsubr
          -138 552 -73 callsubr
          endchar
        </CharString>
        <CharString name="Eth">
          -65 callgsubr
        </CharString>
        <CharString name="Euro">
          254 21 317 rmoveto
          62 hlineto
          -2 -15 0 -16 -15 vvcurveto
          -14 -60 -19 61 vlineto
          -161 12 102 -96 144 hhcurveto
          85 61 28 49 55 1 callgsubr
          -41 -47 -49 -27 -71 hhcurveto
          -117 -88 88 146 -16 hvcurveto
          188 19 -190 28 hlineto
          11 0 10 1 11 vhcurveto
          219 19 -218 hlineto
          191 19 127 91 91 hhcurveto
          79 50 -39 -71 -44 -29 -62 -64 -44 -31 26 41 19 2 14 7 20 hvcurveto
          -18 5 rlineto
          -8 -22 -2 -21 -15 vvcurveto
          -58 48 -28 43 64 51 52 72 88 -69 42 -79 -120 -145 -110 -191 -27 vhcurveto
          -64 hlineto
          endchar
        </CharString>
        <CharString name="F">
          370 281 332 rmoveto
          0 53 5 68 4 vhcurveto
          -85 17 -74 -61 vvcurveto
          -102 -62 -61 -109 -132 -65 73 129 35 8 33 0 -31 callgsubr
          -7 -28 -3 -27 -25 vvcurveto
          -142 81 -72 137 129 88 87 132 vhcurveto
          55 -6 38 73 vvcurveto
          19 vlineto
          1 16 18 0 17 hhcurveto
          47 47 -2 -6 37 hvcurveto
          3 16 rlineto
          11 -34 -39 12 -89 -7 -8 -1 -7 hhcurveto
          5 91 18 77 32 58 rrcurveto
          -11 43 39 -9 32 hhcurveto
          93 45 53 38 37 -34 22 -44 -56 -82 -28 -74 -61 hvcurveto
          26 -84 -96 33 -98 hhcurveto
          -159 -19 -102 -53 -15 2 -11 0 hvcurveto
          19 4 rlineto
          1 -2 9 14 vvcurveto
          47 18 87 142 80 97 -31 -26 86 vhcurveto
          -41 -56 -29 -78 -4 -107 -67 -8 -52 -15 -4 -1 rrcurveto
          350 254 rmoveto
          -31 -35 7 11 -38 hvcurveto
          59 38 55 34 72 hhcurveto
          33 25 -17 -24 -34 -48 -36 -71 hvcurveto
          endchar
        </CharString>
        <CharString name="G">
          -96 callsubr
          endchar
        </CharString>
        <CharString name="Gbreve">
          -96 callsubr
          46 621 -84 callgsubr
        </CharString>
        <CharString name="Gcircumflex">
          -96 callsubr
          79 547 -82 callsubr
        </CharString>
        <CharString name="Gcommaaccent">
          325 268 -245 rmoveto
          -5 14 16 -4 18 hhcurveto
          167 47 112 104 hvcurveto
          65 -24 60 98 vvcurveto
          -16 callsubr
          -128 -172 -164 -132 -55 callsubr
          vhcurveto
          -60 callsubr
          190 167 211 112 26 -17 5 -9 -33 -49 -67 -162 vhcurveto
          -28 2 -25 -24 -15 callgsubr
          -17 -14 3 4 -11 vhcurveto
          -14 70 -92 callsubr
        </CharString>
        <CharString name="Gdotaccent">
          -96 callsubr
          -34 576 -64 callsubr
        </CharString>
        <CharString name="H">
          -77 callgsubr
          endchar
        </CharString>
        <CharString name="Hbar">
          443 452 743 rmoveto
          -39 callsubr
          -19 -49 -13 -66 -2 -85 rrcurveto
          -82 -19 82 hlineto
          -44 1 -48 3 -48 vhcurveto
          -61 -15 -34 -19 -2 -1 7 -19 rcurveline
          -71 callsubr
          40 2 39 5 38 vhcurveto
          70 19 -68 hlineto
          16 127 34 98 1 2 -16 7 rcurveline
          -38 -76 -29 -77 -16 -81 rrcurveto
          -326 hlineto
          -1 16 0 16 15 -14 callsubr
          -163 -333 rmoveto
          322 hlineto
          -7 -41 -4 -42 -42 vvcurveto
          -17 callgsubr
          -3 44 -4 43 -2 41 rrcurveto
          128 347 -19 callsubr
          endchar
        </CharString>
        <CharString name="Hcircumflex">
          -77 callgsubr
          199 63 -82 callsubr
        </CharString>
        <CharString name="I">
          -101 callgsubr
          endchar
        </CharString>
        <CharString name="IJ">
          847 -103 callgsubr
          1060 754 -85 callsubr
          endchar
        </CharString>
        <CharString name="Iacute">
          -101 callgsubr
          196 803 -79 callgsubr
        </CharString>
        <CharString name="Ibreve">
          -101 callgsubr
          208 787 -84 callgsubr
        </CharString>
        <CharString name="Icircumflex">
          -101 callgsubr
          241 713 -82 callsubr
        </CharString>
        <CharString name="Idieresis">
          -101 callgsubr
          81 740 -96 callgsubr
        </CharString>
        <CharString name="Idotaccent">
          -101 callgsubr
          128 742 -64 callsubr
        </CharString>
        <CharString name="Igrave">
          -101 callgsubr
          89 774 -55 callgsubr
        </CharString>
        <CharString name="Imacron">
          -101 callgsubr
          218 728 -28 callsubr
        </CharString>
        <CharString name="Iogonek">
          315 364 -137 -35 callsubr
          26 27 26 19 20 hvcurveto
          132 20 136 148 224 vvcurveto
          -76 callgsubr
          vhcurveto
          -93 callsubr
          -65 29 65 -15 51 3 4 1 3 hhcurveto
          -22 -19 -31 -26 -32 -35 callgsubr
          endchar
        </CharString>
        <CharString name="Itilde">
          -101 callgsubr
          185 740 -88 callgsubr
        </CharString>
        <CharString name="J">
          -62 callgsubr
          endchar
        </CharString>
        <CharString name="Jcircumflex">
          -62 callgsubr
          -168 -33 -82 callsubr
        </CharString>
        <CharString name="K">
          -83 callgsubr
          endchar
        </CharString>
        <CharString name="Kcommaaccent">
          -83 callgsubr
          -9 -466 -92 callsubr
        </CharString>
        <CharString name="L">
          -92 callgsubr
          endchar
        </CharString>
        <CharString name="Lacute">
          -92 callgsubr
          412 903 -79 callgsubr
        </CharString>
        <CharString name="Lcaron">
          -92 callgsubr
          611 613 -92 callsubr
        </CharString>
        <CharString name="Lcommaaccent">
          -92 callgsubr
          278 -174 -92 callsubr
        </CharString>
        <CharString name="Ldot">
          506 -98 callgsubr
          703 327 -47 callsubr
        </CharString>
        <CharString name="Lslash">
          456 122 208 rmoveto
          115 36 rlineto
          3 -29 2 -29 -30 -49 callgsubr
          -79 callsubr
          vvcurveto
          11 0 11 -1 11 vhcurveto
          188 59 -6 18 -183 -58 rlineto
          -4 71 -9 69 60 -67 callgsubr
          -49 6 -50 6 -50 vhcurveto
          -119 -38 rlineto
          -6 -251 -50 callsubr
          endchar
        </CharString>
        <CharString name="M">
          353 695 -111 rmoveto
          -99 41 -52 108 236 vvcurveto
          155 14 156 13 155 vhcurveto
          -19 3 -38 -165 -29 -100 -19 -70 rlinecurve
          -205 -56 -52 -71 -29 hhcurveto
          -35 -14 60 91 hvcurveto
          119 2 284 3 vvcurveto
          -19 2 rlineto
          -1 -36 -162 -58 -219 vhcurveto
          -61 -232 -107 -182 -1 -2 17 -9 rcurveline
          1 2 102 96 72 322 28 127 24 106 17 69 rrcurveto
          -13 -136 -22 -190 -78 vvcurveto
          -88 32 -25 38 101 56 182 132 33 vhcurveto
          22 86 22 88 16 62 rrcurveto
          -18 -115 -40 -246 -108 vvcurveto
          -286 197 -13 2 vhcurveto
          endchar
        </CharString>
        <CharString name="N">
          -90 callgsubr
          endchar
        </CharString>
        <CharString name="Nacute">
          -90 callgsubr
          319 1015 -79 callgsubr
        </CharString>
        <CharString name="Ncaron">
          -90 callgsubr
          354 1013 -65 callsubr
        </CharString>
        <CharString name="Ncommaaccent">
          -90 callgsubr
          340 -136 -92 callsubr
        </CharString>
        <CharString name="Ntilde">
          -90 callgsubr
          308 952 -88 callgsubr
        </CharString>
        <CharString name="O">
          -106 callgsubr
          endchar
        </CharString>
        <CharString name="OE">
          920 771 512 rmoveto
          -25 callgsubr
          -58 -29 -52 -47 -32 -57 rrcurveto
          1 15 1 15 16 vvcurveto
          -104 callsubr
          134 103 68 120 52 vhcurveto
          -121 11 107 -66 122 hhcurveto
          -42 callsubr
          hvcurveto
          -19 1 rlineto
          -106 callsubr
          vhcurveto
          -314 106 rmoveto
          -51 callgsubr
          -34 callgsubr
          hvcurveto
          515 -244 rmoveto
          -56 callgsubr
          -39 callgsubr
          hvcurveto
          endchar
        </CharString>
        <CharString name="Oacute">
          -106 callgsubr
          66 510 -79 callgsubr
        </CharString>
        <CharString name="Obreve">
          -106 callgsubr
          5 494 -84 callgsubr
        </CharString>
        <CharString name="Ocircumflex">
          -106 callgsubr
          38 420 -82 callsubr
        </CharString>
        <CharString name="Odieresis">
          -106 callgsubr
          -122 447 -96 callgsubr
        </CharString>
        <CharString name="Ograve">
          -106 callgsubr
          -114 481 -55 callgsubr
        </CharString>
        <CharString name="Ohungarumlaut">
          -106 callgsubr
          -32 510 -38 callsubr
        </CharString>
        <CharString name="Omacron">
          -106 callgsubr
          15 435 -28 callsubr
        </CharString>
        <CharString name="Oslash">
          -78 callgsubr
          endchar
        </CharString>
        <CharString name="Oslashacute">
          -78 callgsubr
          101 470 -79 callgsubr
        </CharString>
        <CharString name="Otilde">
          -106 callgsubr
          -18 447 -88 callgsubr
        </CharString>
        <CharString name="P">
          383 280 -43 rmoveto
          -23 89 -12 82 -3 73 rrcurveto
          27 -3 callgsubr
          -203 -175 -120 -5 -8 hvcurveto
          11 -16 rlineto
          55 85 148 65 113 -4 callsubr
          -32 32 hlineto
          21 0 20 1 19 vhcurveto
          12 2 12 2 14 1 -2 19 rcurveline
          -12 -1 -11 -2 -11 -2 11 158 42 98 12 26 -17 8 rcurveline
          -1 -2 -87 -112 -16 -192 rrcurveto
          -37 -15 -23 -23 -22 vvcurveto
          -15 9 -22 52 -11 vhcurveto
          10 -89 33 -120 30 -45 rrcurveto
          -114 302 rmoveto
          11 13 14 26 13 vhcurveto
          -1 -12 0 -13 -13 vvcurveto
          -9 0 -9 1 -9 vhcurveto
          -29 7 -10 10 10 vvcurveto
          endchar
        </CharString>
        <CharString name="Q">
          493 235 -117 rmoveto
          82 77 17 30 69 hvcurveto
          -107 87 71 -126 140 hhcurveto
          102 56 69 2 1 hvcurveto
          -11 12 rlineto
          -27 -33 -37 -13 -40 hhcurveto
          -127 -87 105 98 -94 hvcurveto
          167 84 113 166 192 vvcurveto
          205 -137 137 -202 -196 -160 -147 -211 -105 36 -86 64 -70 vhcurveto
          -70 -5 -76 -31 -72 vvcurveto
          -77 99 -40 106 vhcurveto
          -110 486 rmoveto
          204 124 135 184 157 119 -116 -204 -185 -87 -162 -148 -81 vhcurveto
          -75 76 -81 68 -110 4 rrcurveto
          -55 66 -28 80 115 vvcurveto
          177 -364 rmoveto
          10 14 -28 19 -25 19 -22 21 rlinecurve
          93 -11 63 -55 56 -65 rrcurveto
          -28 -59 -67 -15 -74 hhcurveto
          -99 -63 44 50 38 32 43 84 1 hvcurveto
          29 -27 33 -25 37 -23 rrcurveto
          endchar
        </CharString>
        <CharString name="R">
          -102 callsubr
          endchar
        </CharString>
        <CharString name="Racute">
          -102 callsubr
          221 618 -79 callgsubr
        </CharString>
        <CharString name="Rcaron">
          -102 callsubr
          256 616 -65 callsubr
        </CharString>
        <CharString name="Rcommaaccent">
          -102 callsubr
          123 -435 -92 callsubr
        </CharString>
        <CharString name="S">
          -86 callsubr
          endchar
        </CharString>
        <CharString name="Sacute">
          -86 callsubr
          225 333 -79 callgsubr
        </CharString>
        <CharString name="Scaron">
          -86 callsubr
          260 331 -65 callsubr
        </CharString>
        <CharString name="Scedilla">
          -87 callsubr
          vhcurveto
          9 hlineto
          -17 -53 -63 callsubr
          12 38 rlineto
          133 8 114 74 149 -15 callsubr
          endchar
        </CharString>
        <CharString name="Scircumflex">
          -86 callsubr
          270 243 -82 callsubr
        </CharString>
        <CharString name="T">
          -87 callgsubr
          endchar
        </CharString>
        <CharString name="Tbar">
          441 281 707 rmoveto
          -59 callgsubr
          -1 -41 1 -50 -3 -51 rrcurveto
          -195 -19 194 hlineto
          -132 -10 -40 -133 -156 -40 callsubr
          175 79 120 164 10 vhcurveto
          159 19 -158 16 hlineto
          -70 callsubr
          endchar
        </CharString>
        <CharString name="Tcaron">
          -87 callgsubr
          270 921 -65 callsubr
        </CharString>
        <CharString name="Tcommaaccent">
          -87 callgsubr
          -11 -146 -92 callsubr
        </CharString>
        <CharString name="Thorn">
          383 290 -93 rmoveto
          -15 42 -15 66 -10 76 rrcurveto
          19 -3 callgsubr
          -34 -33 -4 -5 -31 hvcurveto
          23 78 23 45 6 13 -18 8 rcurveline
          -1 -1 -37 -55 -36 -96 -139 -34 -103 -70 -6 -4 11 -16 rcurveline
          58 37 86 42 86 23 rrcurveto
          -30 -87 -27 -117 -138 vvcurveto
          -17 0 -17 2 -17 vhcurveto
          -36 -16 -22 -21 -22 vvcurveto
          -17 11 -23 63 -10 vhcurveto
          18 -86 29 -72 22 -34 rrcurveto
          7 323 rmoveto
          -14 -1 -12 -2 -13 -3 rrcurveto
          32 vlineto
          153 20 118 23 84 vhcurveto
          5 26 25 3 24 -4 callsubr
          -26 hlineto
          -3 30 -3 30 -1 31 12 3 13 2 15 1 rrcurveto
          -83 -92 rmoveto
          -36 7 -13 12 11 vvcurveto
          11 13 15 27 13 vhcurveto
          2 -23 3 -24 4 -22 rrcurveto
          endchar
        </CharString>
        <CharString name="U">
          -101 callsubr
          endchar
        </CharString>
        <CharString name="Uacute">
          -101 callsubr
          83 944 -79 callgsubr
        </CharString>
        <CharString name="Ubreve">
          -101 callsubr
          95 928 -84 callgsubr
        </CharString>
        <CharString name="Ucircumflex">
          -101 callsubr
          128 854 -82 callsubr
        </CharString>
        <CharString name="Udieresis">
          -101 callsubr
          -32 881 -96 callgsubr
        </CharString>
        <CharString name="Ugrave">
          -101 callsubr
          -24 915 -55 callgsubr
        </CharString>
        <CharString name="Uhungarumlaut">
          -101 callsubr
          58 944 -38 callsubr
        </CharString>
        <CharString name="Umacron">
          -101 callsubr
          105 869 -28 callsubr
        </CharString>
        <CharString name="Uogonek">
          399 -189 -35 callsubr
          24 24 25 19 20 hvcurveto
          200 6 74 192 212 vvcurveto
          -33 callsubr
          vhcurveto
          -93 callgsubr
          -218 137 -71 144 -3 vhcurveto
          -22 -18 -29 -26 -31 -35 callgsubr
          endchar
        </CharString>
        <CharString name="Uring">
          -101 callsubr
          -7 880 -62 callsubr
        </CharString>
        <CharString name="Utilde">
          -101 callsubr
          72 881 -88 callgsubr
        </CharString>
        <CharString name="V">
          246 290 -74 rmoveto
          75 91 454 92 18 hvcurveto
          58 303 169 82 2 1 -9 17 rcurveline
          -26 -9 -168 -73 -65 -228 -44 -155 -5 -361 -95 -103 rrcurveto
          -32 10 140 245 -55 hvcurveto
          -59 264 -112 116 -3 4 -40 -40 rcurveline
          1 -1 147 -156 46 -191 rrcurveto
          -273 66 -29 -128 59 hhcurveto
          endchar
        </CharString>
        <CharString name="W">
          -94 callgsubr
          endchar
        </CharString>
        <CharString name="Wacute">
          -94 callgsubr
          -6 775 -79 callgsubr
        </CharString>
        <CharString name="Wcircumflex">
          -94 callgsubr
          39 685 -82 callsubr
        </CharString>
        <CharString name="Wdieresis">
          -94 callgsubr
          -121 712 -96 callgsubr
        </CharString>
        <CharString name="Wgrave">
          -94 callgsubr
          -113 746 -55 callgsubr
        </CharString>
        <CharString name="X">
          216 550 -215 rmoveto
          -160 127 -11 210 -64 247 21 36 21 39 23 43 rrcurveto
          373 198 193 23 2 hhcurveto
          -3 19 -9 -1 -200 -28 -198 -368 rlinecurve
          -20 -37 -19 -34 -18 -31 rrcurveto
          1 -1 2 2 vvcurveto
          -80 283 -184 24 -14 3 -4 -17 rcurveline
          46 -17 145 -41 50 -307 rrcurveto
          -4 vlineto
          -142 -233 -91 -79 -61 -65 36 -39 rcurveline
          48 58 87 99 130 220 51 -280 83 -157 135 -86 rrcurveto
          endchar
        </CharString>
        <CharString name="Y">
          -98 callsubr
          endchar
        </CharString>
        <CharString name="Yacute">
          -98 callsubr
          -67 229 -79 callgsubr
        </CharString>
        <CharString name="Ycircumflex">
          -98 callsubr
          -22 139 -82 callsubr
        </CharString>
        <CharString name="Ydieresis">
          -98 callsubr
          -182 166 -96 callgsubr
        </CharString>
        <CharString name="Ygrave">
          -98 callsubr
          -174 200 -55 callgsubr
        </CharString>
        <CharString name="Z">
          -99 callgsubr
          endchar
        </CharString>
        <CharString name="Zacute">
          -99 callgsubr
          327 794 -79 callgsubr
        </CharString>
        <CharString name="Zcaron">
          -99 callgsubr
          362 792 -65 callsubr
        </CharString>
        <CharString name="Zdotaccent">
          -99 callgsubr
          259 733 -64 callsubr
        </CharString>
        <CharString name="a">
          -103 callsubr
          endchar
        </CharString>
        <CharString name="aacute">
          -103 callsubr
          -186 281 -79 callgsubr
        </CharString>
        <CharString name="abreve">
          -103 callsubr
          -174 265 -84 callgsubr
        </CharString>
        <CharString name="acircumflex">
          -103 callsubr
          -141 191 -82 callsubr
        </CharString>
        <CharString name="acute">
          -17 194 509 -79 callgsubr
        </CharString>
        <CharString name="adieresis">
          -103 callsubr
          -301 218 -96 callgsubr
        </CharString>
        <CharString name="ae">
          -67 callsubr
          endchar
        </CharString>
        <CharString name="aeacute">
          -67 callsubr
          -32 163 -79 callgsubr
        </CharString>
        <CharString name="agrave">
          -103 callsubr
          -293 252 -55 callgsubr
        </CharString>
        <CharString name="amacron">
          -103 callsubr
          -164 206 -28 callsubr
        </CharString>
        <CharString name="ampersand">
          420 709 159 rmoveto
          -43 -13 -46 -64 -83 hhcurveto
          -42 -37 12 21 -33 hvcurveto
          92 67 61 94 57 vvcurveto
          45 -26 25 -39 -27 -40 -21 -43 -18 8 -24 26 -11 vhcurveto
          8 16 rlineto
          -18 8 -6 17 12 vvcurveto
          31 23 15 20 23 20 -14 -40 -55 -56 -89 -84 -60 vhcurveto
          -76 58 -49 108 -21 112 rrcurveto
          91 42 94 51 104 vvcurveto
          39 -28 45 -59 -89 -66 -70 -119 -29 2 -31 5 -30 vhcurveto
          -100 -44 -99 -54 -118 vvcurveto
          -77 56 -78 130 68 64 23 33 56 vhcurveto
          -21 35 40 -12 45 hhcurveto
          122 51 77 47 15 hvcurveto
          -471 -119 rmoveto
          -73 -81 41 96 91 57 49 89 43 hvcurveto
          21 -111 51 -110 82 -60 rrcurveto
          -24 -44 -50 -15 -52 hhcurveto
          26 465 rmoveto
          78 47 61 63 47 22 -36 -35 -85 -84 -46 -87 -39 vhcurveto
          -6 34 -2 35 33 vvcurveto
          endchar
        </CharString>
        <CharString name="aogonek">
          40 368 -33 -35 callsubr
          26 26 28 21 18 hvcurveto
          30 25 25 52 38 101 -18 callsubr
          -102 callgsubr
          4 hlineto
          -20 -18 -20 -22 -25 -35 callgsubr
          endchar
        </CharString>
        <CharString name="approxequal">
          83 339 348 rmoveto
          -22 callsubr
          -118 vmoveto
          -22 callsubr
          endchar
        </CharString>
        <CharString name="aring">
          -103 callsubr
          -276 217 -62 callsubr
        </CharString>
        <CharString name="asciicircum">
          -67 224 459 rmoveto
          -76 166 rlineto
          -22 hlineto
          -76 -166 rlineto
          20 hlineto
          67 130 66 -130 rlineto
          endchar
        </CharString>
        <CharString name="asciitilde">
          83 349 287 rmoveto
          -2 callgsubr
          -33 -18 callgsubr
          42 -5 callsubr
          endchar
        </CharString>
        <CharString name="asterisk">
          83 301 442 rmoveto
          9 7 9 7 9 8 -25 24 -25 27 -25 24 99 33 rcurveline
          -5 11 -4 10 -5 11 -29 -16 -36 -19 -28 -16 10 107 rcurveline
          -34 hlineto
          3 -34 2 -39 3 -34 -91 51 rcurveline
          -5 -11 -4 -10 -5 -11 33 -10 34 -13 32 -10 -75 -75 rcurveline
          8 -7 11 -8 8 -7 20 30 23 31 19 30 rrcurveto
          endchar
        </CharString>
        <CharString name="at">
          401 645 326 rmoveto
          -135 1 -72 -46 -48 hhcurveto
          -59 -8 41 30 26 8 33 5 14 hvcurveto
          -25 8 -8 -23 -6 -22 -1 -20 rlinecurve
          -44 -15 -24 -39 -34 hhcurveto
          -32 -22 28 55 111 63 48 38 22 17 -14 -25 -46 -45 -14 -4 hvcurveto
          5 -18 rlineto
          17 7 46 22 49 vvcurveto
          39 -28 18 -31 -52 -89 -71 -105 -70 42 -32 44 41 26 25 37 17 vhcurveto
          -35 5 25 -32 58 hhcurveto
          81 65 76 126 -1 hvcurveto
          134 -1 -98 99 -162 hhcurveto
          -167 -162 -139 -202 4 hvcurveto
          -127 3 87 -120 200 hhcurveto
          57 59 12 28 53 hvcurveto
          -8 16 rlineto
          -26 -51 -53 -6 -55 hhcurveto
          -151 -90 114 119 -3 hvcurveto
          180 -4 122 129 159 hhcurveto
          160 78 -103 -110 1 hvcurveto
          endchar
        </CharString>
        <CharString name="atilde">
          -103 callsubr
          -197 218 -88 callgsubr
        </CharString>
        <CharString name="b">
          54 188 30 rmoveto
          -80 -22 105 79 -4 hvcurveto
          73 149 52 125 87 vvcurveto
          40 -13 22 -25 1 vhcurveto
          -69 2 -60 -123 -263 vvcurveto
          -158 43 -92 96 37 30 21 31 22 vhcurveto
          10 hlineto
          79 35 61 117 44 -46 callgsubr
          -100 -40 -27 -63 -67 hhcurveto
          -3 hlineto
          19 35 10 42 36 vvcurveto
          91 -48 28 -35 -47 -33 -42 -61 -77 45 -53 54 -15 vhcurveto
          -18 -15 -19 -12 -23 hhcurveto
          -25 588 rmoveto
          21 3 -23 -19 -68 -44 -118 -62 -131 hvcurveto
          161 12 198 70 vhcurveto
          18 -408 rmoveto
          41 16 37 30 33 29 -38 -63 -28 -10 -45 -21 -35 vhcurveto
          -46 15 -31 54 62 vvcurveto
          endchar
        </CharString>
        <CharString name="backslash">
          33 350 -19 rmoveto
          -110 230 -108 223 -112 229 -18 -8 rcurveline
          121 -252 109 -226 100 -204 rrcurveto
          endchar
        </CharString>
        <CharString name="bar">
          -67 111 750 rmoveto
          -800 27 800 vlineto
          endchar
        </CharString>
        <CharString name="braceleft">
          -6 252 729 rmoveto
          -7 -5 -143 -52 -112 -105 40 -53 -47 vvcurveto
          -46 -55 -15 -26 -6 vhcurveto
          -1 -18 rlineto
          3 -3 74 -24 -87 -80 -47 -83 -52 vvcurveto
          -75 137 -25 4 -1 vhcurveto
          5 18 rlineto
          -17 5 -78 13 67 51 46 85 79 vvcurveto
          61 -70 39 -29 18 vhcurveto
          37 14 68 24 47 52 -41 48 104 vvcurveto
          99 85 39 23 9 vhcurveto
          endchar
        </CharString>
        <CharString name="braceright">
          -6 71 712 rmoveto
          23 -9 85 -39 -99 -104 -41 -48 -52 vvcurveto
          -47 68 -24 37 -14 vhcurveto
          -29 -18 -70 -39 -61 -79 46 -85 -51 vvcurveto
          -67 -78 -13 -17 -5 vhcurveto
          5 -18 rlineto
          4 1 137 25 75 52 -47 83 80 vvcurveto
          87 74 24 3 3 vhcurveto
          -1 18 rlineto
          -26 6 -55 15 46 47 40 53 105 vvcurveto
          112 -143 52 -7 5 vhcurveto
          endchar
        </CharString>
        <CharString name="bracketleft">
          -29 126 -113 rmoveto
          -8 803 109 4 rlineto
          19 vlineto
          -162 -4 8 -839 154 -8 1 19 rlineto
          endchar
        </CharString>
        <CharString name="bracketright">
          -29 182 688 rmoveto
          8 -804 -110 -3 1 -19 162 4 -8 839 -154 8 -1 -19 rlineto
          endchar
        </CharString>
        <CharString name="breve">
          -17 205 493 -84 callgsubr
        </CharString>
        <CharString name="brokenbar">
          -67 138 400 rmoveto
          350 -27 -350 vlineto
          -123 vmoveto
          -327 27 327 vlineto
          endchar
        </CharString>
        <CharString name="bullet">
          -87 180 292 rmoveto
          33 -26 26 -34 -33 -27 -26 -33 -34 27 -26 33 34 26 26 34 vhcurveto
          endchar
        </CharString>
        <CharString name="c">
          -94 callsubr
          endchar
        </CharString>
        <CharString name="cacute">
          -94 callsubr
          -12 236 -79 callgsubr
        </CharString>
        <CharString name="caron">
          -17 228 507 -65 callsubr
        </CharString>
        <CharString name="ccaron">
          -94 callsubr
          23 234 -65 callsubr
        </CharString>
        <CharString name="ccedilla">
          -76 callsubr
          -102 59 -53 71 -8 hvcurveto
          -18 -55 -63 callsubr
          12 38 rlineto
          3 hlineto
          -86 callgsubr
          endchar
        </CharString>
        <CharString name="ccircumflex">
          -94 callsubr
          33 146 -82 callsubr
        </CharString>
        <CharString name="cdotaccent">
          -94 callsubr
          -80 175 -64 callsubr
        </CharString>
        <CharString name="cedilla">
          -17 163 9 rmoveto
          -17 hlineto
          -20 -60 -63 callsubr
          endchar
        </CharString>
        <CharString name="cent">
          16 196 -30 rmoveto
          -1 33 0 43 47 vvcurveto
          51 1 38 26 29 39 -14 12 rcurveline
          -32 -25 -29 -20 -38 hhcurveto
          -12 155 hlineto
          19 vlineto
          -5 8 10 -2 8 hhcurveto
          36 33 30 53 53 -38 32 -53 hvcurveto
          -1 hlineto
          2 30 2 32 2 40 rrcurveto
          -13 hlineto
          -3 -24 -5 -37 -5 -44 rrcurveto
          -64 -14 -74 -79 -101 vvcurveto
          -103 59 -53 73 -7 vhcurveto
          3 -66 4 -45 1 -13 rrcurveto
          -94 299 rmoveto
          105 47 45 43 12 vhcurveto
          -5 -51 -3 -59 -54 vvcurveto
          -53 1 -48 1 -42 vhcurveto
          -48 14 -36 46 85 vvcurveto
          117 166 rmoveto
          33 34 -23 -43 -22 -9 -42 -40 -10 -10 4 8 -6 hvcurveto
          45 1 35 2 38 vhcurveto
          endchar
        </CharString>
        <CharString name="circumflex">
          -17 239 419 -82 callsubr
        </CharString>
        <CharString name="colon">
          -106 151 31 -50 callgsubr
          10 240 -47 callsubr
        </CharString>
        <CharString name="comma">
          -167 73 -85 -74 callsubr
          endchar
        </CharString>
        <CharString name="commaaccent">
          -17 144 -140 -92 callsubr
        </CharString>
        <CharString name="copyright">
          531 60 330 rmoveto
          -201 163 -163 201 201 163 163 201 201 -163 163 -201 -201 -163 -163 -201 vhcurveto
          30 hmoveto
          185 149 149 185 185 149 6 callsubr
          6 callsubr
          149 185 vhcurveto
          464 236 rmoveto
          -16 -2 -17 -5 -17 -8 rrcurveto
          10 -17 -19 5 -19 hhcurveto
          -104 -128 -91 -167 -123 87 -80 120 83 77 42 69 41 hvcurveto
          -13 9 rlineto
          -56 -38 -61 -39 -70 hhcurveto
          -120 -60 85 104 154 109 77 77 13 13 -3 -4 11 hvcurveto
          -45 -25 -38 -42 -49 vvcurveto
          -47 37 -22 35 48 34 43 59 36 -16 28 -24 18 vhcurveto
          13 7 13 5 13 4 rrcurveto
          -16 -97 rmoveto
          -35 -20 -52 -43 -25 -16 19 28 52 28 37 38 24 vhcurveto
          24 -17 14 -27 -29 vvcurveto
          endchar
        </CharString>
        <CharString name="currency">
          116 70 136 rmoveto
          61 60 rlineto
          -21 24 32 -13 35 hhcurveto
          35 32 13 21 24 hvcurveto
          61 -61 14 13 -61 62 rlineto
          21 24 13 31 35 vvcurveto
          35 -13 31 -21 25 vhcurveto
          62 61 -13 14 -62 -62 rlineto
          22 -25 -32 13 -35 hhcurveto
          -34 -32 -13 -21 -24 hvcurveto
          -61 63 -13 -14 61 -62 rlineto
          -22 -24 -13 -33 -35 vvcurveto
          -35 13 -31 21 -24 vhcurveto
          -62 -61 rlineto
          47 151 rmoveto
          67 53 53 66 67 53 -53 -67 -66 -53 -53 -67 -66 -53 53 66 vhcurveto
          endchar
        </CharString>
        <CharString name="d">
          90 -58 callgsubr
          endchar
        </CharString>
        <CharString name="dagger">
          33 299 471 rmoveto
          37 vlineto
          -95 -8 3 163 rlineto
          -47 hlineto
          3 -164 -93 9 rlineto
          -37 vlineto
          93 8 12 -616 rlineto
          17 hlineto
          11 616 rlineto
          endchar
        </CharString>
        <CharString name="daggerdbl">
          33 299 34 rmoveto
          37 vlineto
          -100 -9 -7 210 8 207 99 -8 rlineto
          37 vlineto
          -98 -9 6 164 rlineto
          -47 hlineto
          6 -164 -96 9 rlineto
          -37 vlineto
          97 8 8 -207 -8 -210 -97 9 rlineto
          -37 vlineto
          96 8 -6 -179 rlineto
          47 hlineto
          -7 179 rlineto
          endchar
        </CharString>
        <CharString name="dcaron">
          147 -58 callgsubr
          78 -20 -92 callsubr
        </CharString>
        <CharString name="dcroat">
          90 182 460 rmoveto
          85 hlineto
          -6 -37 -5 -43 -3 -51 rrcurveto
          8 -13 -21 9 -28 hhcurveto
          -44 callsubr
          52 92 39 121 22 96 rrcurveto
          57 19 -52 hlineto
          9 45 6 39 24 vvcurveto
          48 -16 25 -29 -31 -48 -44 -137 -27 vhcurveto
          -89 hlineto
          -34 -436 -36 callgsubr
          139 144 rmoveto
          22 vlineto
          94 5 87 11 70 vhcurveto
          81 hlineto
          -20 -86 -35 -104 -42 -83 rrcurveto
          116 400 rmoveto
          -27 -6 -38 -9 -43 vhcurveto
          -82 hlineto
          99 16 26 62 31 hhcurveto
          22 2 -33 -20 hvcurveto
          endchar
        </CharString>
        <CharString name="degree">
          -173 124 559 rmoveto
          30 -22 22 -30 -29 -23 -23 -29 -30 23 -22 29 30 22 24 28 vhcurveto
          -19 hmoveto
          -18 -14 -15 -19 -19 -14 14 19 19 14 14 19 19 14 -14 -19 vhcurveto
          endchar
        </CharString>
        <CharString name="dieresis">
          -17 79 446 -96 callgsubr
        </CharString>
        <CharString name="divide">
          83 228 381 rmoveto
          -7 callsubr
          -191 vmoveto
          -7 callsubr
          111 100 rmoveto
          -24 callsubr
          endchar
        </CharString>
        <CharString name="dollar">
          62 349 193 rmoveto
          79 -75 28 -66 32 vhcurveto
          76 3 54 3 64 vhcurveto
          63 -2 28 -33 -37 vvcurveto
          -33 -19 -39 -4 -8 vhcurveto
          14 -11 rlineto
          2 2 26 47 43 vvcurveto
          52 -39 37 -70 2 vhcurveto
          1 25 1 27 2 32 rrcurveto
          -15 hlineto
          -2 -6 -7 -26 -6 -54 rrcurveto
          -65 -9 -48 -54 -72 vvcurveto
          -65 48 -33 54 -27 vhcurveto
          -93 2 -69 2 -49 vhcurveto
          -5 hlineto
          -64 -62 26 55 36 25 21 12 7 hvcurveto
          -9 17 rlineto
          -2 -1 -47 -25 -55 vvcurveto
          -72 70 -30 78 vhcurveto
          6 hlineto
          3 -60 4 -28 1 -14 rrcurveto
          17 hlineto
          -2 35 -1 34 34 vvcurveto
          81 10 62 52 78 vvcurveto
          -141 76 rmoveto
          54 -26 50 -24 -50 vvcurveto
          -47 -40 -38 -66 -9 vhcurveto
          65 1 65 1 64 vhcurveto
          -30 78 rmoveto
          -39 22 -31 25 44 vvcurveto
          26 17 51 62 9 vhcurveto
          -4 -43 -4 -58 -1 -76 rrcurveto
          endchar
        </CharString>
        <CharString name="dotaccent">
          -17 126 448 -64 callsubr
        </CharString>
        <CharString name="dotlessi">
          -89 callsubr
          endchar
        </CharString>
        <CharString name="dotlessj">
          -44 callgsubr
          endchar
        </CharString>
        <CharString name="e">
          -100 callsubr
          endchar
        </CharString>
        <CharString name="eacute">
          -100 callsubr
          35 170 -79 callgsubr
        </CharString>
        <CharString name="ebreve">
          -100 callsubr
          47 154 -84 callgsubr
        </CharString>
        <CharString name="ecaron">
          -100 callsubr
          70 168 -65 callsubr
        </CharString>
        <CharString name="ecircumflex">
          -100 callsubr
          80 80 -82 callsubr
        </CharString>
        <CharString name="edieresis">
          -100 callsubr
          -80 107 -96 callgsubr
        </CharString>
        <CharString name="edotaccent">
          -100 callsubr
          -33 109 -64 callsubr
        </CharString>
        <CharString name="egrave">
          -100 callsubr
          -72 141 -55 callgsubr
        </CharString>
        <CharString name="eight">
          151 158 89 rmoveto
          -64 43 -40 62 61 48 46 66 58 -43 47 -54 45 vhcurveto
          85 74 108 69 101 vvcurveto
          24 -6 25 -13 28 vhcurveto
          -17 -8 rlineto
          11 -24 6 -23 -21 vvcurveto
          -100 -104 -62 -84 -72 vhcurveto
          -83 68 -100 63 90 vvcurveto
          71 64 76 110 45 77 -13 -82 -85 -93 -10 -4 -1 vhcurveto
          2 -19 rlineto
          1 113 12 103 68 -54 46 -87 -110 -112 -74 -111 -100 105 -70 86 -69 hvcurveto
          -37 -38 -26 -42 -52 vvcurveto
          175 -20 rmoveto
          -32 -21 -33 -48 -52 -35 32 52 45 24 40 35 36 vhcurveto
          54 -44 43 -45 -51 vvcurveto
          endchar
        </CharString>
        <CharString name="ellipsis">
          133 121 31 -50 callgsubr
          150 hmoveto
          -59 callsubr
          150 hmoveto
          -59 callsubr
          endchar
        </CharString>
        <CharString name="emacron">
          -100 callsubr
          57 95 -28 callsubr
        </CharString>
        <CharString name="emdash">
          683 1000 210 rmoveto
          27 -1000 -27 vlineto
          endchar
        </CharString>
        <CharString name="endash">
          183 440 210 rmoveto
          27 -370 -27 vlineto
          endchar
        </CharString>
        <CharString name="eng">
          101 307 240 rmoveto
          -28 -8 -128 -15 -117 vhcurveto
          -15 -12 -15 -11 -15 -11 rrcurveto
          -67 -46 -66 -37 -82 -2 callsubr
          76 41 136 138 21 vhcurveto
          67 59 53 73 45 136 -18 callsubr
          -37 -110 -45 -71 -58 -56 rrcurveto
          13 99 4 94 36 vvcurveto
          53 -27 18 -24 -41 -34 -53 callsubr
          19 -5 rlineto
          -56 callsubr
          57 239 76 hhcurveto
          15 10 -15 -28 hvcurveto
          -52 -433 rmoveto
          -64 -19 -33 -31 -28 hhcurveto
          -26 -17 24 23 61 47 38 61 45 hvcurveto
          13 10 14 10 12 10 -7 -48 -8 -44 -9 -34 rrcurveto
          endchar
        </CharString>
        <CharString name="eogonek">
          -37 277 -49 -35 callsubr
          27 29 30 21 18 hvcurveto
          56 49 30 97 18 45 -18 callsubr
          -80 callgsubr
          -63 -74 -68 -117 -97 59 -46 67 12 13 1 5 13 hvcurveto
          -13 -13 -15 -20 -19 -35 callgsubr
          -117 377 -75 callgsubr
          endchar
        </CharString>
        <CharString name="equal">
          83 339 356 rmoveto
          -24 callsubr
          -107 vmoveto
          -24 callsubr
          endchar
        </CharString>
        <CharString name="eth">
          -15 87 456 rmoveto
          90 58 34 -57 28 -66 10 -67 -11 callsubr
          128 -44 102 -47 73 hvcurveto
          98 63 -11 16 -97 -63 -35 52 -36 37 -20 22 rlinecurve
          -14 -16 30 -28 30 -36 27 -42 rlinecurve
          -90 -58 rlineto
          190 -251 -12 callsubr
        </CharString>
        <CharString name="exclam">
          -107 139 663 rmoveto
          0 -42 -258 9 -270 vhcurveto
          17 -2 rlineto
          343 79 166 0 vhcurveto
          -50 -611 -10 callsubr
        </CharString>
        <CharString name="exclamdown">
          -107 78 -209 rmoveto
          0 42 258 -9 270 vhcurveto
          -17 2 rlineto
          -343 -79 -166 0 vhcurveto
          50 611 -9 callgsubr
        </CharString>
        <CharString name="f">
          -84 237 599 rmoveto
          -19 callgsubr
          62 24 35 95 21 56 -18 callsubr
          -19 -50 -35 -93 -52 -21 -25 callsubr
          -110 -40 -40 callgsubr
          -16 -462 -7 callgsubr
          endchar
        </CharString>
        <CharString name="f_j">
          116 192 -237 rmoveto
          -47 21 -24 28 49 25 68 175 6 vhcurveto
          19 vlineto
          66 65 70 -41 callgsubr
          -18 6 rcurveline
          -12 -41 -9 -30 -8 -36 -21 -55 -60 -109 -64 -4 rrcurveto
          35 -9 -14 22 -22 hhcurveto
          -16 -12 -14 -18 -21 27 -17 28 -4 hvcurveto
          6 -33 4 -47 -60 vvcurveto
          -92 -24 -61 -26 -30 -15 57 -26 callgsubr
          -28 callgsubr
          5 -171 81 46 25 80 117 50 -3 48 -7 37 vhcurveto
          54 6 45 55 30 54 -6 -50 -5 -67 -5 -100 rrcurveto
          -63 -74 -26 -58 -56 vvcurveto
          -65 796 -40 callgsubr
          150 -652 rmoveto
          -82 -2 -7 -103 -27 hhcurveto
          -14 -12 14 31 64 45 52 17 24 hvcurveto
          118 599 rmoveto
          -60 callgsubr
          -258 -409 3 callsubr
          8 7 -12 -23 6 vhcurveto
          -16 5 -15 9 9 vvcurveto
          endchar
        </CharString>
        <CharString name="fi">
          97 335 -81 callgsubr
          -23 -45 -16 -41 -9 -35 rlinecurve
          -19 -51 -34 -85 -50 -20 -25 callsubr
          -19 callgsubr
          36 14 27 38 21 41 rrcurveto
          -1 vlineto
          -67 30 -33 41 vhcurveto
          -208 508 -40 callgsubr
          287 -53 rmoveto
          -48 callsubr
          -303 -409 -7 callgsubr
          277 409 rmoveto
          -48 callgsubr
          endchar
        </CharString>
        <CharString name="five">
          190 228 -9 rmoveto
          140 119 110 147 181 -145 46 -73 -53 -51 -11 -32 -49 hvcurveto
          16 78 1 68 19 vvcurveto
          -5 45 40 -6 36 hhcurveto
          64 54 13 1 3 hvcurveto
          -13 49 rlineto
          -1 -1 -57 -35 -108 hhcurveto
          -22 -24 1 3 -26 hvcurveto
          -11 -8 -8 -91 -53 -154 -1 -1 rlinecurve
          18 -8 rlineto
          1 55 94 108 124 79 -88 -128 -136 -83 -88 -125 -83 -95 57 101 7 1 5 2 5 vhcurveto
          -18 6 rlineto
          -3 -7 -1 -8 -9 vvcurveto
          -106 96 -70 102 vhcurveto
          endchar
        </CharString>
        <CharString name="fl">
          126 237 599 rmoveto
          -27 callgsubr
          64 -14 85 -23 60 vhcurveto
          37 11 34 33 25 37 rrcurveto
          -73 11 24 -63 55 -10 callgsubr
          57 7 callgsubr
          45 94 93 186 123 2 callsubr
          -34 0 -46 4 -46 vhcurveto
          -27 -46 -34 -40 -38 -10 rrcurveto
          32 -15 -18 22 -19 -9 callsubr
          2 hlineto
          15 -53 12 -81 -75 -27 callsubr
          70 -265 -37 callsubr
          -169 -49 -98 vhcurveto
          -1 22 0 34 25 vvcurveto
          -180 225 -40 callgsubr
          -16 -442 3 callsubr
          8 9 -15 -23 9 vhcurveto
          -19 1 -17 14 11 vvcurveto
          endchar
        </CharString>
        <CharString name="florin">
          83 105 327 rmoveto
          68 hlineto
          -258 -37 12 -336 -95 hhcurveto
          -21 -12 14 24 -4 hvcurveto
          -20 -8 rlineto
          -25 4 17 -24 37 hhcurveto
          133 7 354 259 30 hvcurveto
          88 19 -85 hlineto
          141 17 26 108 60 hhcurveto
          23 11 -17 -16 -18 -10 -19 -11 -21 hvcurveto
          18 -9 rlineto
          14 24 9 26 20 vvcurveto
          30 -23 20 -29 -92 -41 -119 -150 -23 vhcurveto
          -71 hlineto
          endchar
        </CharString>
        <CharString name="four">
          178 396 209 rmoveto
          28 2 28 4 28 8 -5 19 rcurveline
          -25 -8 -27 -4 -26 -2 16 365 rcurveline
          -19 1 -5 -123 -10 -120 -19 -120 rlinecurve
          12 -64 -63 23 -77 hhcurveto
          -13 -25 -2 -1 -9 hvcurveto
          66 142 39 198 2 9 -19 3 rcurveline
          0 -75 -263 -87 -106 vhcurveto
          2 -2 25 -31 13 -13 rrcurveto
          19 35 39 6 40 hhcurveto
          51 55 -16 -1 61 hvcurveto
          -12 -68 -12 -67 -16 -66 72 -3 rcurveline
          endchar
        </CharString>
        <CharString name="fraction">
          -83 -61 -4 -53 callgsubr
          endchar
        </CharString>
        <CharString name="g">
          -89 callgsubr
          endchar
        </CharString>
        <CharString name="gbreve">
          -89 callgsubr
          103 453 -84 callgsubr
        </CharString>
        <CharString name="gcircumflex">
          -89 callgsubr
          136 379 -82 callsubr
        </CharString>
        <CharString name="gcommaaccent">
          -72 callsubr
          -113 -82 callgsubr
          61 459 rmoveto
          -16 -13 -17 -21 -25 vvcurveto
          -18 10 -13 17 13 11 11 13 17 -12 7 -15 vhcurveto
          10 6 12 13 10 vhcurveto
          endchar
        </CharString>
        <CharString name="gdotaccent">
          -89 callgsubr
          23 408 -64 callsubr
        </CharString>
        <CharString name="germandbls">
          13 233 110 rmoveto
          -43 -16 -23 callsubr
          rlineto
          -24 17 31 -8 27 hhcurveto
          102 50 -49 callsubr
          87 -108 69 55 55 80 66 104 vvcurveto
          39 -22 25 -35 -168 2 -673 -152 40 vhcurveto
          20 5 rlineto
          128 -8 0 672 107 hhcurveto
          22 6 -23 -21 hvcurveto
          -140 -79 -47 -60 -46 99 -73 -75 vvcurveto
          endchar
        </CharString>
        <CharString name="grave">
          -17 87 480 -55 callgsubr
        </CharString>
        <CharString name="greater">
          83 303 307 rmoveto
          -174 184 -19 -19 156 -165 -156 -165 19 -19 rlineto
          endchar
        </CharString>
        <CharString name="greaterequal">
          83 116 435 rmoveto
          -16 -18 182 -136 -182 -136 16 -18 204 154 rlineto
          29 -196 -21 callsubr
          endchar
        </CharString>
        <CharString name="guillemotleft">
          114 254 95 -20 callgsubr
          314 -144 -20 callgsubr
          endchar
        </CharString>
        <CharString name="guillemotright">
          114 261 239 -20 callsubr
          314 144 -20 callsubr
          endchar
        </CharString>
        <CharString name="guilsinglleft">
          -26 254 95 -20 callgsubr
          endchar
        </CharString>
        <CharString name="guilsinglright">
          -26 261 239 -20 callsubr
          endchar
        </CharString>
        <CharString name="h">
          -57 callgsubr
          endchar
        </CharString>
        <CharString name="hbar">
          53 -2 460 rmoveto
          64 hlineto
          -3 -20 -3 -22 -2 -25 rrcurveto
          -12 -140 -2 -100 -61 -42 1 -15 -6 vvcurveto
          19 -3 rlineto
          68 27 63 190 80 hhcurveto
          17 6 -13 -14 hvcurveto
          -51 -32 -74 -44 vvcurveto
          -41 14 -30 49 81 37 130 87 33 -31 callgsubr
          -48 -18 -49 -149 -55 hhcurveto
          -26 -8 16 20 hvcurveto
          50 30 64 47 vvcurveto
          36 -23 28 -35 -76 -62 -140 -64 -26 vhcurveto
          2 32 2 32 3 31 50 104 43 89 23 73 rrcurveto
          84 19 -78 hlineto
          7 26 4 24 22 vvcurveto
          39 -19 25 -30 -19 -49 -12 -124 -26 vhcurveto
          -67 hlineto
          102 -19 rmoveto
          71 hlineto
          -19 -63 -34 -75 -39 -76 6 81 6 74 9 59 rrcurveto
          60 135 rmoveto
          22 6 -23 -21 -21 -4 -24 -7 -27 hvcurveto
          -74 hlineto
          71 13 17 45 27 hhcurveto
          endchar
        </CharString>
        <CharString name="hcircumflex">
          -57 callgsubr
          90 70 -82 callsubr
        </CharString>
        <CharString name="hungarumlaut">
          -17 144 509 -38 callsubr
        </CharString>
        <CharString name="hyphen">
          -14 callgsubr
        </CharString>
        <CharString name="i">
          -89 callsubr
          79 455 rmoveto
          -60 callgsubr
          endchar
        </CharString>
        <CharString name="iacute">
          -89 callsubr
          73 451 -79 callgsubr
        </CharString>
        <CharString name="ibreve">
          -89 callsubr
          65 435 -84 callgsubr
        </CharString>
        <CharString name="icircumflex">
          -89 callsubr
          98 361 -82 callsubr
        </CharString>
        <CharString name="idieresis">
          -89 callsubr
          -62 388 -96 callgsubr
        </CharString>
        <CharString name="igrave">
          -89 callsubr
          -64 422 -55 callgsubr
        </CharString>
        <CharString name="ij">
          34 274 340 rmoveto
          -18 6 -13 -45 -11 -33 -10 -42 rlinecurve
          -52 -18 -41 -98 -51 -57 callsubr
          rlineto
          -44 -86 -16 -71 -44 vvcurveto
          -67 30 -33 41 49 34 43 47 23 vhcurveto
          -6 -47 -5 -62 -4 -85 -46 callsubr
          699 vmoveto
          -48 callsubr
          162 hmoveto
          -60 callgsubr
          -162 hmoveto
          -48 callgsubr
          endchar
        </CharString>
        <CharString name="imacron">
          -89 callsubr
          75 376 -28 callsubr
        </CharString>
        <CharString name="iogonek">
          -136 163 -34 -35 callsubr
          25 26 26 19 19 hvcurveto
          70 18 34 109 20 54 -18 callsubr
          -46 -16 -43 -117 -56 -57 callsubr
          rlineto
          -44 -86 -16 -71 -44 vvcurveto
          -66 29 -33 40 -1 vhcurveto
          -22 -19 -29 -25 -31 -35 callgsubr
          13 552 rmoveto
          -60 callgsubr
          endchar
        </CharString>
        <CharString name="itilde">
          -89 callsubr
          42 388 -88 callgsubr
        </CharString>
        <CharString name="j">
          -17 callsubr
          -46 callsubr
          162 699 rmoveto
          -60 callgsubr
          endchar
        </CharString>
        <CharString name="jcircumflex">
          -44 callgsubr
          173 598 -82 callsubr
        </CharString>
        <CharString name="k">
          -63 callgsubr
          endchar
        </CharString>
        <CharString name="kcommaaccent">
          -63 callgsubr
          -23 -752 -92 callsubr
        </CharString>
        <CharString name="kgreenlandic">
          38 71 112 rmoveto
          49 2 43 11 53 vhcurveto
          14 25 13 16 26 vvcurveto
          21 -18 11 -16 -28 -11 -175 -68 -24 1 -27 2 -33 -64 callgsubr
          -53 -138 -69 -29 vhcurveto
          endchar
        </CharString>
        <CharString name="l">
          -107 -77 callsubr
          endchar
        </CharString>
        <CharString name="lacute">
          -107 -77 callsubr
          142 479 -79 callgsubr
        </CharString>
        <CharString name="lcaron">
          -56 -77 callsubr
          204 227 -92 callsubr
        </CharString>
        <CharString name="lcommaaccent">
          -107 -77 callsubr
          44 -454 -92 callsubr
        </CharString>
        <CharString name="ldotaccent">
          6 231 174 rmoveto
          -78 -32 -31 -48 -31 -29 callgsubr
          -29 callsubr
          50 39 71 74 30 vhcurveto
          -176 167 -54 callsubr
          209 -63 -47 callsubr
        </CharString>
        <CharString name="less">
          83 284 123 rmoveto
          19 19 -156 165 156 165 -19 19 -174 -184 rlineto
          endchar
        </CharString>
        <CharString name="lessequal">
          83 349 85 -21 callsubr
          -56 62 rmoveto
          16 18 -182 136 182 136 -16 18 -204 -154 rlineto
          endchar
        </CharString>
        <CharString name="logicalnot">
          83 339 344 rmoveto
          -93 4 -87 -2 -99 -2 rrcurveto
          -20 vlineto
          102 -5 79 1 73 3 rrcurveto
          -37 2 -34 1 -33 vhcurveto
          20 hlineto
          2 38 0 38 39 vvcurveto
          endchar
        </CharString>
        <CharString name="lslash">
          -107 -23 169 rmoveto
          59 31 rlineto
          -88 7 22 -90 66 -10 callgsubr
          67 7 callgsubr
          93 49 -9 17 -71 -39 rlineto
          48 99 77 155 112 2 callsubr
          -27 0 -33 2 -36 vhcurveto
          -67 -35 rlineto
          106 149 -54 callsubr
          endchar
        </CharString>
        <CharString name="m">
          240 65 2 callgsubr
          50 17 17 23 16 hhcurveto
          21 5 -18 -57 -89 -25 -114 0 hvcurveto
          33 -8 rlineto
          88 19 40 213 57 hhcurveto
          20 11 -20 -27 -61 -29 -154 -1 -1 hvcurveto
          35 -6 rlineto
          86 12 39 154 49 hhcurveto
          26 6 -25 -24 hvcurveto
          -42 -16 -61 -47 vvcurveto
          -53 21 -21 38 66 43 124 90 37 -31 callgsubr
          -99 -41 -40 -94 -36 hhcurveto
          -24 -8 17 38 hvcurveto
          14 13 87 27 vvcurveto
          62 -34 21 -31 -32 -27 -24 -34 -18 vhcurveto
          69 -1 -30 19 -26 hhcurveto
          -35 -29 -29 -75 -29 hvcurveto
          67 -24 25 -29 -32 -23 -30 -61 -21 vhcurveto
          endchar
        </CharString>
        <CharString name="macron">
          -17 216 434 -28 callsubr
        </CharString>
        <CharString name="minus">
          83 339 290 rmoveto
          -24 callsubr
          endchar
        </CharString>
        <CharString name="mu">
          62 369 92 rmoveto
          -31 -18 -18 -16 -20 hhcurveto
          -30 -14 44 39 40 4 41 11 99 hvcurveto
          -34 4 rlineto
          -115 -12 -15 -142 -84 hhcurveto
          -28 -22 21 61 80 6 92 1 1 hvcurveto
          -37 hlineto
          0 -11 -92 -106 vvcurveto
          -119 -8 -111 -18 -86 vhcurveto
          43 12 8 41 6 97 5 119 rlinecurve
          -31 11 26 -15 22 hhcurveto
          36 27 20 74 27 hvcurveto
          -51 25 -38 46 33 24 25 35 20 vhcurveto
          endchar
        </CharString>
        <CharString name="multiply">
          83 320 411 rmoveto
          -69 -63 -109 -113 -69 -71 14 -14 rcurveline
          84 77 109 111 54 58 rrcurveto
          2 -232 rmoveto
          -63 69 -113 110 -71 68 -14 -14 rcurveline
          75 -81 110 -108 61 -58 rrcurveto
          endchar
        </CharString>
        <CharString name="n">
          -95 callsubr
          endchar
        </CharString>
        <CharString name="nacute">
          -95 callsubr
          263 213 -79 callgsubr
        </CharString>
        <CharString name="napostrophe">
          -95 callsubr
          28 283 -92 callsubr
        </CharString>
        <CharString name="nbspace">
          -97 endchar
        </CharString>
        <CharString name="ncaron">
          -95 callsubr
          298 211 -65 callsubr
        </CharString>
        <CharString name="ncommaaccent">
          -95 callsubr
          177 -349 -92 callsubr
        </CharString>
        <CharString name="nine">
          186 230 7 rmoveto
          -101 -42 80 3 -2 hvcurveto
          -17 -9 rlineto
          -4 2 46 -89 113 hhcurveto
          154 100 171 185 133 -62 159 -158 -123 -110 -125 -142 -150 110 -53 86 70 91 30 93 41 hvcurveto
          -190 -13 -89 -92 -96 hhcurveto
          -155 376 rmoveto
          108 60 126 128 70 88 -50 -197 8 vhcurveto
          -134 -13 -94 -40 -70 hhcurveto
          -100 -77 80 107 hvcurveto
          endchar
        </CharString>
        <CharString name="notequal">
          83 339 229 rmoveto
          -50 2 -45 1 -46 -1 14 34 14 33 13 35 rrcurveto
          34 33 2 1 33 hvcurveto
          20 vlineto
          1 -32 -29 1 -30 hhcurveto
          16 41 15 42 16 43 -19 8 rcurveline
          -20 -48 -18 -44 -17 -42 rrcurveto
          -48 -48 -1 -1 -55 hvcurveto
          -20 vlineto
          -3 54 45 0 41 hhcurveto
          -14 -36 -14 -34 -12 -32 rrcurveto
          -1 -32 -33 -1 -35 hhcurveto
          -20 vlineto
          -2 33 29 -1 28 hhcurveto
          -19 -48 -16 -43 -14 -38 18 -7 rcurveline
          20 46 20 45 19 45 55 -1 47 2 49 2 rrcurveto
          endchar
        </CharString>
        <CharString name="ntilde">
          -95 callsubr
          252 150 -88 callgsubr
        </CharString>
        <CharString name="numbersign">
          70 95 61 rmoveto
          19 hlineto
          14 162 rlineto
          120 hlineto
          -14 -162 rlineto
          20 hlineto
          14 162 rlineto
          79 19 -78 hlineto
          11 128 rlineto
          79 19 -77 hlineto
          14 161 rlineto
          -19 hlineto
          -15 -161 rlineto
          -120 hlineto
          15 161 rlineto
          -20 hlineto
          -14 -161 rlineto
          -79 -19 77 hlineto
          -11 -128 rlineto
          -78 -19 77 hlineto
          32 147 rmoveto
          120 hlineto
          -12 -128 rlineto
          -120 hlineto
          endchar
        </CharString>
        <CharString name="o">
          -104 callgsubr
          endchar
        </CharString>
        <CharString name="oacute">
          -104 callgsubr
          30 169 -79 callgsubr
        </CharString>
        <CharString name="obreve">
          -104 callgsubr
          42 153 -84 callgsubr
        </CharString>
        <CharString name="ocircumflex">
          -104 callgsubr
          75 79 -82 callsubr
        </CharString>
        <CharString name="odieresis">
          -104 callgsubr
          -85 106 -96 callgsubr
        </CharString>
        <CharString name="oe">
          208 398 -88 callsubr
          -44 -48 -32 -58 -26 hvcurveto
          88 -10 -43 26 -41 hhcurveto
          -58 -24 -52 -46 -30 9 -27 14 -22 hvcurveto
          19 7 rlineto
          -15 20 -8 26 30 vvcurveto
          44 27 31 35 42 33 -31 -100 3 vhcurveto
          -104 3 -55 -61 -54 hhcurveto
          -69 callgsubr
          64 40 42 55 20 vhcurveto
          -67 15 51 -32 56 hhcurveto
          12 309 -75 callgsubr
          endchar
        </CharString>
        <CharString name="ogonek">
          -17 203 -84 -35 callsubr
          27 31 28 19 20 hvcurveto
          -18 hlineto
          -22 -19 -38 -28 -35 -35 callgsubr
          endchar
        </CharString>
        <CharString name="ograve">
          -104 callgsubr
          -77 140 -55 callgsubr
        </CharString>
        <CharString name="ohungarumlaut">
          -104 callgsubr
          5 169 -38 callsubr
        </CharString>
        <CharString name="omacron">
          -104 callgsubr
          52 94 -28 callsubr
        </CharString>
        <CharString name="one">
          -121 166 615 rmoveto
          -18 5 rlineto
          -35 -85 -73 -80 0 vvcurveto
          14 -13 2 2 49 54 38 67 rlinecurve
          -94 -555 60 -3 rlineto
          endchar
        </CharString>
        <CharString name="onehalf">
          347 380 3 -51 callsubr
          -331 -7 -53 callgsubr
          120 627 -24 callgsubr
          270 -223 -13 callgsubr
        </CharString>
        <CharString name="onequarter">
          280 510 -47 callgsubr
          -355 630 -24 callgsubr
          -62 -247 -53 callgsubr
          endchar
        </CharString>
        <CharString name="onesuperior">
          -157 139 633 -24 callgsubr
          endchar
        </CharString>
        <CharString name="ordfeminine">
          -17 295 420 rmoveto
          -15 -11 -10 -8 -10 hhcurveto
          -20 -7 13 40 26 7 32 5 14 hvcurveto
          -24 8 -8 -24 -3 -19 -3 -18 rlinecurve
          -44 -14 -25 -37 -32 hhcurveto
          -32 -19 24 54 103 61 49 35 22 16 -11 -25 -44 -47 -14 -3 hvcurveto
          7 -17 rlineto
          16 7 45 20 48 vvcurveto
          32 -20 22 -39 -50 -84 -66 -104 -68 40 -31 42 40 24 25 36 16 vhcurveto
          -34 4 21 -16 23 hhcurveto
          19 15 9 23 16 hvcurveto
          -247 -109 -6 callgsubr
        </CharString>
        <CharString name="ordmasculine">
          -17 271 473 rmoveto
          -6 -3 -6 -2 -6 -2 rrcurveto
          3 16 2 16 17 vvcurveto
          95 -44 26 -36 -47 -22 -40 -37 -66 52 -46 64 vhcurveto
          4 hlineto
          -40 -16 -30 -21 -29 hhcurveto
          -40 -45 25 85 43 24 43 24 22 hvcurveto
          -9 12 rlineto
          -38 -30 -28 -53 -55 vvcurveto
          -84 52 -38 48 57 34 41 52 15 vhcurveto
          10 2 10 3 10 5 rrcurveto
          -52 5 rmoveto
          -49 -50 36 61 35 22 23 28 35 27 -29 -74 2 hvcurveto
          -20 -2 -17 -4 -15 vhcurveto
          -180 -163 -6 callgsubr
        </CharString>
        <CharString name="oslash">
          -75 callsubr
          endchar
        </CharString>
        <CharString name="oslashacute">
          -75 callsubr
          38 169 -79 callgsubr
        </CharString>
        <CharString name="otilde">
          -104 callgsubr
          19 106 -88 callgsubr
        </CharString>
        <CharString name="p">
          58 287 66 rmoveto
          -5 callgsubr
          -56 -52 -48 -120 -57 vhcurveto
          -2 32 -1 33 30 vvcurveto
          12 28 8 29 26 vvcurveto
          21 -22 11 -10 -15 -7 -31 -50 -58 5 -64 6 -65 vhcurveto
          -46 -103 -40 -108 -76 5 callsubr
          55 -8 74 -6 76 vhcurveto
          3 6 2 7 3 6 -32 callgsubr
          -224 -232 5 callgsubr
          61 27 75 38 92 vhcurveto
          5 -61 5 -62 -57 -16 callgsubr
        </CharString>
        <CharString name="paragraph">
          50 291 -15 rmoveto
          -10 192 -8 268 14 184 22 -5 11 -5 22 -18 16 15 rcurveline
          28 -33 -36 12 -52 hhcurveto
          -91 -96 -64 -93 -117 87 -32 56 hvcurveto
          8 hlineto
          2 -94 1 -177 1 -93 rrcurveto
          25 hlineto
          -10 192 0 254 6 201 rrcurveto
          13 13 0 -1 12 hvcurveto
          -11 -187 12 -273 -187 vvcurveto
          endchar
        </CharString>
        <CharString name="parenleft">
          -20 266 714 rmoveto
          -2 -2 -219 -142 6 -292 6 -292 188 -113 6 -5 12 15 rcurveline
          -1 1 -154 112 -5 282 -6 282 178 137 2 1 rrcurveto
          endchar
        </CharString>
        <CharString name="parenright">
          -20 36 698 rmoveto
          2 -1 178 -137 -6 -282 -5 -282 -154 -112 -1 -1 12 -15 rcurveline
          6 5 188 113 6 292 6 292 -219 142 -2 2 rrcurveto
          endchar
        </CharString>
        <CharString name="partialdiff">
          -2 130 652 rmoveto
          -17 -10 76 -97 39 -134 18 -87 -11 callsubr
          129 -74 198 -76 99 hvcurveto
          131 -427 -12 callsubr
        </CharString>
        <CharString name="percent">
          316 -66 callgsubr
          endchar
        </CharString>
        <CharString name="period">
          -167 121 31 -47 callsubr
        </CharString>
        <CharString name="periodcentered">
          -167 113 291 -47 callsubr
        </CharString>
        <CharString name="perthousand">
          616 -66 callgsubr
          300 hmoveto
          -78 callsubr
          endchar
        </CharString>
        <CharString name="pi">
          183 150 29 rmoveto
          22 79 21 105 19 88 rrcurveto
          32 32 4 6 32 hvcurveto
          -25 -41 -19 -80 -54 vvcurveto
          -88 51 -22 35 45 24 34 30 13 vhcurveto
          -18 9 rlineto
          -34 -13 -23 -19 -22 hhcurveto
          -29 -18 35 56 61 20 93 7 26 hvcurveto
          54 14 53 21 50 28 -10 17 rcurveline
          -1 -1 -130 -76 -148 hhcurveto
          -115 -52 52 0 hvcurveto
          -14 -13 2 -2 51 -53 115 -3 rlinecurve
          -19 -77 -19 -83 -63 -108 rrcurveto
          endchar
        </CharString>
        <CharString name="plus">
          -32 callsubr
          endchar
        </CharString>
        <CharString name="plusminus">
          -32 callsubr
          153 -50 -21 callsubr
          endchar
        </CharString>
        <CharString name="q">
          57 420 -1 callsubr
          -53 -137 -30 -41 -66 -34 10 83 23 156 10 52 -19 3 rcurveline
          -2 -7 -2 -6 -2 -7 rrcurveto
          21 -14 -26 24 -48 hhcurveto
          -71 -102 -64 -141 -91 57 -41 61 33 31 18 31 24 hvcurveto
          -13 -75 -9 -73 -56 vvcurveto
          -97 22 -70 62 46 27 30 49 61 -30 83 -46 106 vhcurveto
          70 45 25 42 51 131 rrcurveto
          -197 -136 rmoveto
          -44 -25 -32 -26 -34 hhcurveto
          -47 -31 49 62 73 45 116 89 44 22 -34 -20 9 hvcurveto
          -15 -54 -13 -61 -12 -61 rrcurveto
          108 -330 rmoveto
          -37 -16 -23 -28 -34 -19 42 72 26 5 76 11 86 vhcurveto
          3 0 4 1 4 vhcurveto
          49 -113 31 -88 -52 vvcurveto
          endchar
        </CharString>
        <CharString name="question">
          152 217 134 rmoveto
          -11 18 -11 16 22 111 274 38 177 vvcurveto
          104 -97 50 -96 -117 -89 -72 -92 -73 57 -34 60 37 30 10 9 20 vhcurveto
          -8 17 rlineto
          -7 -16 -25 -10 -30 hhcurveto
          -67 -38 30 56 81 74 66 112 57 86 -33 -97 hvcurveto
          -165 -244 -12 -148 vvcurveto
          -21 7 -23 19 -28 vhcurveto
          41 -93 -10 callsubr
        </CharString>
        <CharString name="questiondown">
          152 281 320 rmoveto
          11 -18 11 -16 -22 -111 -274 -38 -177 vvcurveto
          -104 97 -50 96 117 89 72 92 73 -57 34 -60 -37 -30 -10 -9 -20 vhcurveto
          8 -17 rlineto
          7 16 25 10 30 hhcurveto
          67 38 -30 -56 -81 -74 -66 -112 -57 -86 33 97 hvcurveto
          165 244 12 148 vvcurveto
          21 -7 23 -19 28 vhcurveto
          -41 93 -9 callgsubr
        </CharString>
        <CharString name="quotedbl">
          -157 105 663 -4 callgsubr
          118 174 -4 callgsubr
          endchar
        </CharString>
        <CharString name="quotedblbase">
          -92 53 -85 -37 callgsubr
        </CharString>
        <CharString name="quotedblleft">
          -92 89 668 -34 callsubr
          81 11 -34 callsubr
          endchar
        </CharString>
        <CharString name="quotedblright">
          -92 83 519 -37 callgsubr
        </CharString>
        <CharString name="quoteleft">
          -187 89 668 -34 callsubr
          endchar
        </CharString>
        <CharString name="quoteright">
          -187 83 519 -74 callsubr
          endchar
        </CharString>
        <CharString name="quotesinglbase">
          -187 53 -85 -74 callsubr
          endchar
        </CharString>
        <CharString name="quotesingle">
          -237 105 663 -4 callgsubr
          endchar
        </CharString>
        <CharString name="r">
          -27 74 260 rmoveto
          -5 10 10 -2 14 hhcurveto
          13 14 3 5 11 hvcurveto
          -15 -31 -16 -47 -41 vvcurveto
          -82 47 -32 38 60 39 41 165 56 -31 callgsubr
          -126 -45 -33 -51 -45 hhcurveto
          -40 -23 29 66 58 17 47 27 40 hvcurveto
          3 5 2 3 2 vvcurveto
          7 -5 4 -7 -5 0 -1 -31 -20 vhcurveto
          -11 -11 -19 -8 -25 hhcurveto
          -14 -9 3 3 -4 hvcurveto
          4 12 4 24 15 vvcurveto
          34 -11 30 -16 -14 -10 -21 -28 -31 9 -22 10 -15 vhcurveto
          -9 -34 -11 -33 -15 -38 4 -4 rcurveline
          24 30 12 18 13 45 rrcurveto
          endchar
        </CharString>
        <CharString name="racute">
          -27 74 260 rmoveto
          -5 10 10 -2 14 hhcurveto
          13 14 3 5 11 hvcurveto
          -15 -31 -16 -47 -41 vvcurveto
          -82 47 -32 38 60 39 41 165 56 -31 callgsubr
          -126 -45 -33 -51 -45 hhcurveto
          -40 -23 29 66 58 17 47 27 40 hvcurveto
          3 5 2 3 2 vvcurveto
          7 -5 4 -7 -5 0 -1 -31 -20 vhcurveto
          -11 -11 -19 -8 -25 hhcurveto
          -14 -9 3 3 -4 hvcurveto
          4 12 4 24 15 vvcurveto
          34 -11 30 -16 -14 -10 -21 -28 -31 9 -22 10 -15 vhcurveto
          -9 -34 -11 -33 -15 -38 4 -4 rcurveline
          24 30 12 18 13 45 rrcurveto
          126 235 -79 callgsubr
        </CharString>
        <CharString name="rcaron">
          -27 74 260 rmoveto
          -5 10 10 -2 14 hhcurveto
          13 14 3 5 11 hvcurveto
          -15 -31 -16 -47 -41 vvcurveto
          -82 47 -32 38 60 39 41 165 56 -31 callgsubr
          -126 -45 -33 -51 -45 hhcurveto
          -40 -23 29 66 58 17 47 27 40 hvcurveto
          3 5 2 3 2 vvcurveto
          7 -5 4 -7 -5 0 -1 -31 -20 vhcurveto
          -11 -11 -19 -8 -25 hhcurveto
          -14 -9 3 3 -4 hvcurveto
          4 12 4 24 15 vvcurveto
          34 -11 30 -16 -14 -10 -21 -28 -31 9 -22 10 -15 vhcurveto
          -9 -34 -11 -33 -15 -38 4 -4 rcurveline
          24 30 12 18 13 45 rrcurveto
          141 233 -65 callsubr
        </CharString>
        <CharString name="rcommaaccent">
          -27 74 260 rmoveto
          -5 10 10 -2 14 hhcurveto
          13 14 3 5 11 hvcurveto
          -15 -31 -16 -47 -41 vvcurveto
          -82 47 -32 38 60 39 41 165 56 -31 callgsubr
          -126 -45 -33 -51 -45 hhcurveto
          -40 -23 29 66 58 17 47 27 40 hvcurveto
          3 5 2 3 2 vvcurveto
          7 -5 4 -7 -5 0 -1 -31 -20 vhcurveto
          -11 -11 -19 -8 -25 hhcurveto
          -14 -9 3 3 -4 hvcurveto
          4 12 4 24 15 vvcurveto
          34 -11 30 -16 -14 -10 -21 -28 -31 9 -22 10 -15 vhcurveto
          -9 -34 -11 -33 -15 -38 4 -4 rcurveline
          24 30 12 18 13 45 rrcurveto
          34 -380 -92 callsubr
        </CharString>
        <CharString name="registered">
          248 50 405 rmoveto
          -128 104 -104 128 128 105 104 128 128 -105 105 -128 -128 -104 -105 -128 vhcurveto
          30 hmoveto
          112 90 91 112 112 91 -91 -112 -112 -91 -90 -112 -112 -90 90 112 vhcurveto
          314 60 rmoveto
          50 -50 29 -59 -83 -37 -42 -6 -5 vhcurveto
          8 -8 rlineto
          0 34 44 83 30 49 -15 -51 -46 -30 -19 -38 -4 vhcurveto
          18 -12 -25 10 -20 hhcurveto
          -4 2 hlineto
          42 13 32 3 7 vhcurveto
          -7 7 rlineto
          -2 -35 -49 -55 -15 1 -15 1 -13 hvcurveto
          1 -12 1 -11 -10 vvcurveto
          -19 0 -19 -25 -5 -5 1 3 -8 vhcurveto
          -3 -13 rlineto
          -3 10 5 0 6 hhcurveto
          35 17 32 49 5 0 10 -1 9 hvcurveto
          -3 14 16 -1 12 hhcurveto
          -37 19 9 -77 56 hhcurveto
          22 17 14 16 18 hvcurveto
          -8 8 rlineto
          -12 -14 -14 -6 -10 hhcurveto
          -45 -10 69 26 -17 hvcurveto
          41 51 23 55 hvcurveto
          -159 -51 rmoveto
          5 hlineto
          12 11 -7 -10 9 hvcurveto
          -17 -11 2 3 -8 hvcurveto
          4 vlineto
          -1 3 0 3 2 vvcurveto
          endchar
        </CharString>
        <CharString name="ring">
          -17 104 445 -62 callsubr
        </CharString>
        <CharString name="s">
          -84 callsubr
          endchar
        </CharString>
        <CharString name="sacute">
          -84 callsubr
          60 267 -79 callgsubr
        </CharString>
        <CharString name="scaron">
          -84 callsubr
          95 265 -65 callsubr
        </CharString>
        <CharString name="scedilla">
          -45 callgsubr
          10 -15 16 -9 17 -4 rlinecurve
          -17 -53 -63 callsubr
          11 34 rlineto
          -1 5 5 0 5 -81 callsubr
          endchar
        </CharString>
        <CharString name="scircumflex">
          -84 callsubr
          105 177 -82 callsubr
        </CharString>
        <CharString name="section">
          194 461 210 rmoveto
          54 -38 57 -102 45 vhcurveto
          -145 64 -34 29 65 vvcurveto
          62 54 62 85 85 39 -36 -56 -47 -25 -41 -4 -16 vhcurveto
          21 -11 rlineto
          2 3 31 55 57 vvcurveto
          69 -51 48 -97 -89 -83 -63 -102 -48 14 -34 25 -26 vhcurveto
          -25 -31 -14 -40 -45 vvcurveto
          -95 77 -37 93 -44 vhcurveto
          91 -43 48 -29 -70 vvcurveto
          -69 -53 -62 -125 -72 -95 29 83 50 36 22 6 4 vhcurveto
          -8 22 rlineto
          -4 -54 -29 -69 -80 76 -55 114 118 103 63 123 30 -12 34 -33 32 hvcurveto
          22 28 23 42 46 vvcurveto
          -181 110 rmoveto
          91 -43 48 -29 -70 vvcurveto
          -24 -7 -24 -12 -21 vhcurveto
          -20 16 -26 15 -33 14 rrcurveto
          -147 60 -32 41 49 vvcurveto
          43 5 22 15 19 vhcurveto
          30 -27 42 -20 46 -21 rrcurveto
          endchar
        </CharString>
        <CharString name="semicolon">
          -106 103 -85 -74 callsubr
          72 345 -47 callsubr
        </CharString>
        <CharString name="seven">
          75 160 -3 rmoveto
          28 175 63 250 141 201 -11 15 rcurveline
          -15 -40 -54 -5 -55 -108 -109 20 -2 hhcurveto
          -3 -19 rlineto
          1 111 -20 111 hhcurveto
          45 46 4 9 38 hvcurveto
          -123 -191 -89 -180 -49 -236 59 -8 rcurveline
          endchar
        </CharString>
        <CharString name="six">
          183 317 635 rmoveto
          -128 -154 -128 -249 -197 132 -81 107 128 83 128 125 120 -75 90 -114 -118 -48 -88 -127 hvcurveto
          19 hlineto
          118 42 78 105 100 69 -79 -104 1 vhcurveto
          -99 1 -53 -135 -123 hhcurveto
          -109 -88 81 198 178 81 152 141 102 33 -79 -3 1 hvcurveto
          17 9 rlineto
          4 -1 -38 88 -113 hhcurveto
          endchar
        </CharString>
        <CharString name="slash">
          33 29 -27 rmoveto
          100 204 109 226 121 252 -18 8 rcurveline
          -112 -229 -108 -223 -110 -230 rrcurveto
          endchar
        </CharString>
        <CharString name="space">
          -97 endchar
        </CharString>
        <CharString name="sterling">
          244 54 248 rmoveto
          103 hlineto
          8 -34 8 -34 -32 vvcurveto
          -29 -3 -26 -5 -22 vhcurveto
          12 -27 -28 9 -28 hhcurveto
          -58 -24 -28 -30 -30 27 -23 51 44 33 24 38 22 hvcurveto
          -33 62 69 -46 89 hhcurveto
          86 38 42 67 16 -4 16 -11 16 hvcurveto
          -17 -9 rlineto
          8 -16 5 -11 -14 vvcurveto
          -66 -44 -21 -63 -81 -64 45 32 -63 vhcurveto
          18 39 8 49 50 vvcurveto
          16 -1 17 -2 16 vhcurveto
          141 19 -143 hlineto
          -7 47 -10 45 49 vvcurveto
          110 63 93 114 63 39 -43 -51 -43 -27 -37 0 vhcurveto
          16 -10 rlineto
          2 2 28 42 49 vvcurveto
          59 -47 51 -75 -93 -139 -65 -192 -33 9 -36 9 -37 vhcurveto
          -99 hlineto
          26 -267 rmoveto
          -23 -27 11 24 29 30 9 22 25 25 -9 -12 26 hvcurveto
          -33 -13 -25 -19 -40 hhcurveto
          endchar
        </CharString>
        <CharString name="t">
          -83 callsubr
          endchar
        </CharString>
        <CharString name="t_t">
          123 -65 393 rmoveto
          24 -11 38 -13 54 -8 rrcurveto
          -5 -33 -2 -36 -38 vvcurveto
          -169 46 -34 57 35 40 43 62 38 vhcurveto
          -98 14 38 -27 45 hhcurveto
          81 40 132 71 27 hvcurveto
          -13 callsubr
          -56 -15 86 70 -4 hvcurveto
          23 47 22 53 16 49 54 8 48 11 48 12 -9 18 rcurveline
          -37 -9 -46 -11 -52 -8 rrcurveto
          16 54 10 49 34 -6 callsubr
          -35 -41 -74 -117 -18 vhcurveto
          -2 -28 -29 -1 -30 hhcurveto
          -39 hlineto
          21 56 17 58 37 -6 callsubr
          -34 -41 -72 -113 -18 vhcurveto
          -53 9 -36 13 -22 9 rrcurveto
          211 -332 rmoveto
          -59 -12 97 68 -2 hvcurveto
          15 27 18 40 16 42 rrcurveto
          -1 14 15 0 16 hhcurveto
          30 28 0 2 27 hvcurveto
          -4 -31 -2 -33 -36 vvcurveto
          -23 0 -21 2 -18 vhcurveto
          -66 -35 -30 -47 -37 hhcurveto
          142 298 rmoveto
          120 14 38 42 12 hhcurveto
          4 callsubr
          -29 -11 -53 -18 -59 hvcurveto
          -13 -2 -14 -1 -13 -2 rrcurveto
          -210 -1 rmoveto
          121 14 38 42 12 hhcurveto
          4 callsubr
          -27 -13 -59 -23 -64 hvcurveto
          -12 1 -11 1 -10 1 rrcurveto
          243 -15 rmoveto
          -11 -32 -13 -34 -14 -32 rrcurveto
          20 vlineto
          27 1 25 2 22 vhcurveto
          12 1 11 2 12 1 rrcurveto
          -217 -7 rmoveto
          -9 -24 -11 -24 -11 -24 rrcurveto
          1 vlineto
          27 1 24 2 22 vhcurveto
          -1 9 9 -1 10 hhcurveto
          endchar
        </CharString>
        <CharString name="tbar">
          -87 -61 381 rmoveto
          -6 29 40 -3 44 hhcurveto
          -4 -27 -3 -29 -1 -30 rrcurveto
          -65 -19 65 -13 hlineto
          -43 callgsubr
          3 7 5 8 4 9 rrcurveto
          106 19 -97 hlineto
          12 26 12 30 12 30 54 1 54 4 53 7 -2 18 rcurveline
          -40 -7 -52 -3 -60 -1 rrcurveto
          17 49 13 49 33 -6 callsubr
          -33 -40 -67 -107 -19 vhcurveto
          -49 -38 2 7 -25 hvcurveto
          207 139 rmoveto
          4 callsubr
          -25 -11 -50 -19 -57 hvcurveto
          -31 hlineto
          -6 hlineto
          109 15 36 39 11 hhcurveto
          -65 -167 rmoveto
          8 hlineto
          25 hlineto
          -10 -29 -12 -29 -14 -28 rrcurveto
          -1 hlineto
          32 2 29 2 25 vhcurveto
          endchar
        </CharString>
        <CharString name="tcaron">
          -83 callsubr
          146 218 -92 callsubr
        </CharString>
        <CharString name="tcommaaccent">
          -83 callsubr
          57 -402 -92 callsubr
        </CharString>
        <CharString name="thorn">
          58 203 551 rmoveto
          39 -19 25 -30 -66 -47 -168 -170 -56 3 -62 5 -64 vhcurveto
          -48 -105 -41 -111 -78 5 callsubr
          78 -4 73 -4 69 vhcurveto
          1 1 0 2 1 1 -32 callgsubr
          -5 callgsubr
          -54 -49 -44 -108 -54 vhcurveto
          -1 17 0 17 16 vvcurveto
          69 144 55 116 79 -3 callsubr
          -69 -45 -112 -59 -114 hvcurveto
          190 2 24 149 50 hhcurveto
          -92 -761 5 callgsubr
          62 28 76 39 96 vhcurveto
          4 -64 4 -63 -59 -16 callgsubr
        </CharString>
        <CharString name="three">
          185 20 153 rmoveto
          -112 8 102 -58 106 hhcurveto
          134 101 82 130 144 -123 42 -93 -26 -23 -3 -6 -17 hvcurveto
          53 44 116 102 56 104 -11 13 rcurveline
          -14 -50 -68 -4 -59 hhcurveto
          -71 -58 5 1 -1 hvcurveto
          8 -50 rlineto
          105 100 15 14 53 hvcurveto
          -57 -100 -84 -83 -71 -55 7 -16 rcurveline
          4 22 22 2 20 hhcurveto
          122 76 -67 -106 -142 -122 -32 -76 -112 -65 75 72 -5 hvcurveto
          -19 -1 rlineto
          endchar
        </CharString>
        <CharString name="threequarters">
          460 690 -47 callgsubr
          -456 -7 -53 callgsubr
          -176 323 -45 callsubr
        </CharString>
        <CharString name="threesuperior">
          49 34 329 -45 callsubr
        </CharString>
        <CharString name="tilde">
          -17 183 446 -88 callgsubr
        </CharString>
        <CharString name="trademark">
          378 50 585 rmoveto
          20 -2 27 -3 30 -1 rrcurveto
          -5 -26 -2 -29 -31 vvcurveto
          -121 34 -30 39 48 28 73 65 24 vhcurveto
          34 12 10 13 10 hhcurveto
          13 0 -12 -37 -61 -17 -76 0 hvcurveto
          30 -5 1 5 2 7 1 6 rlinecurve
          66 14 22 117 34 hhcurveto
          13 4 -13 -17 -41 -21 -104 -1 -1 hvcurveto
          33 -4 rlineto
          58 8 26 103 29 hhcurveto
          17 1 -16 -16 -14 -2 -16 -3 -17 hvcurveto
          -3 -18 -3 -19 -17 vvcurveto
          -36 17 -14 27 42 27 71 58 23 vhcurveto
          6 16 -14 4 rlineto
          -67 -28 -27 -63 -23 hhcurveto
          -15 -2 12 24 4 1 13 2 15 hvcurveto
          2 20 3 24 10 vvcurveto
          42 -26 15 -21 -19 -20 -17 -19 -12 vhcurveto
          45 -1 -20 11 -18 hhcurveto
          -23 -17 -18 -47 -18 hvcurveto
          43 -1 -19 14 -20 hhcurveto
          -21 -14 -20 -41 -16 hvcurveto
          -29 -10 -33 -92 -35 hhcurveto
          -43 -3 74 48 -1 hvcurveto
          12 23 14 34 12 35 rrcurveto
          16 hlineto
          60 61 4 5 44 hvcurveto
          17 vlineto
          -4 -34 -75 -5 -55 hhcurveto
          -11 hlineto
          9 30 7 28 20 vvcurveto
          19 -6 11 -14 -21 -27 -41 -65 -15 vhcurveto
          -33 1 -30 3 -15 2 rrcurveto
          143 81 rmoveto
          2 0 -4 -6 -15 -5 -30 -10 -34 hvcurveto
          -23 hlineto
          65 10 20 24 6 hhcurveto
          -42 -165 rmoveto
          22 1 20 2 18 vhcurveto
          7 7 -1 7 hhcurveto
          -7 -20 -8 -20 -9 -19 rrcurveto
          endchar
        </CharString>
        <CharString name="two">
          193 116 2 rmoveto
          45 47 14 24 43 hvcurveto
          -22 49 49 -22 51 hhcurveto
          16 17 2 5 17 hvcurveto
          -6 18 rlineto
          -4 -15 -14 -2 -15 hhcurveto
          -44 -43 17 19 -42 hvcurveto
          122 77 97 153 136 vvcurveto
          165 -133 50 -105 -128 -93 -98 -113 -32 8 -32 15 -27 vhcurveto
          0 25 15 10 7 vhcurveto
          -19 30 -7 31 28 vvcurveto
          96 83 77 106 80 105 -36 -153 -132 -81 -157 -111 -73 vhcurveto
          19 -43 -44 19 -44 hhcurveto
          -50 -34 -18 -31 -30 35 -20 51 hvcurveto
          1 19 rmoveto
          -32 -16 16 15 18 20 12 25 36 38 -14 -17 38 hvcurveto
          -19 -34 -37 -11 -38 hhcurveto
          endchar
        </CharString>
        <CharString name="twosuperior">
          56 103 233 -51 callsubr
          1 17 -13 callgsubr
        </CharString>
        <CharString name="u">
          62 233 113 rmoveto
          -51 25 -38 46 74 33 128 82 33 -31 callgsubr
          -99 callsubr
          endchar
        </CharString>
        <CharString name="uacute">
          62 233 113 rmoveto
          -51 25 -38 46 74 33 128 82 33 -31 callgsubr
          -99 callsubr
          14 364 -79 callgsubr
        </CharString>
        <CharString name="ubreve">
          62 233 113 rmoveto
          -51 25 -38 46 74 33 128 82 33 -31 callgsubr
          -99 callsubr
          26 348 -84 callgsubr
        </CharString>
        <CharString name="ucircumflex">
          62 233 113 rmoveto
          -51 25 -38 46 74 33 128 82 33 -31 callgsubr
          -99 callsubr
          59 274 -82 callsubr
        </CharString>
        <CharString name="udieresis">
          62 233 113 rmoveto
          -51 25 -38 46 74 33 128 82 33 -31 callgsubr
          -99 callsubr
          -101 301 -96 callgsubr
        </CharString>
        <CharString name="ugrave">
          62 233 113 rmoveto
          -51 25 -38 46 74 33 128 82 33 -31 callgsubr
          -99 callsubr
          -93 335 -55 callgsubr
        </CharString>
        <CharString name="uhungarumlaut">
          62 233 113 rmoveto
          -51 25 -38 46 74 33 128 82 33 -31 callgsubr
          -99 callsubr
          -11 364 -38 callsubr
        </CharString>
        <CharString name="umacron">
          62 233 113 rmoveto
          -51 25 -38 46 74 33 128 82 33 -31 callgsubr
          -99 callsubr
          36 289 -28 callsubr
        </CharString>
        <CharString name="underscore">
          -17 300 -120 rmoveto
          37 -300 -37 vlineto
          endchar
        </CharString>
        <CharString name="uni00AD">
          -14 callgsubr
        </CharString>
        <CharString name="uni2215">
          -83 -61 -4 -53 callgsubr
          endchar
        </CharString>
        <CharString name="uogonek">
          62 394 -41 -35 callsubr
          26 29 27 19 20 hvcurveto
          40 42 24 83 24 60 -18 callsubr
          -99 callsubr
          -51 25 -38 46 vhcurveto
          5 hlineto
          -15 -16 -14 -18 -21 -35 callgsubr
          endchar
        </CharString>
        <CharString name="uring">
          62 233 113 rmoveto
          -51 25 -38 46 74 33 128 82 33 -31 callgsubr
          -99 callsubr
          -76 300 -62 callsubr
        </CharString>
        <CharString name="utilde">
          62 233 113 rmoveto
          -51 25 -38 46 74 33 128 82 33 -31 callgsubr
          -99 callsubr
          3 301 -88 callgsubr
        </CharString>
        <CharString name="v">
          8 371 -1 callsubr
          -82 -33 -28 -39 -28 hhcurveto
          -22 -21 15 45 hvcurveto
          15 37 15 53 28 vvcurveto
          14 -4 6 -9 -11 -35 -12 -86 -13 3 -21 2 -12 vhcurveto
          -81 -33 -52 -63 -18 hhcurveto
          -16 -23 62 108 24 1 27 3 28 hvcurveto
          -19 2 rlineto
          0 -24 -53 -71 vvcurveto
          -110 51 -36 24 29 48 52 84 36 vhcurveto
          -28 4 23 -21 29 hhcurveto
          43 29 42 96 40 hvcurveto
          endchar
        </CharString>
        <CharString name="w">
          -100 callgsubr
          endchar
        </CharString>
        <CharString name="wacute">
          -100 callgsubr
          -78 218 -79 callgsubr
        </CharString>
        <CharString name="wcircumflex">
          -100 callgsubr
          -33 128 -82 callsubr
        </CharString>
        <CharString name="wdieresis">
          -100 callgsubr
          -193 155 -96 callgsubr
        </CharString>
        <CharString name="wgrave">
          -100 callgsubr
          -185 189 -55 callgsubr
        </CharString>
        <CharString name="x">
          42 301 330 rmoveto
          -40 -52 -40 -54 -40 -55 -5 9 -6 9 -5 10 rrcurveto
          102 -57 -23 4 -8 hhcurveto
          -6 -9 -5 -7 -2 hvcurveto
          -4 -18 -5 -19 -7 -18 18 -7 rcurveline
          6 14 3 11 4 13 rrcurveto
          10 34 -74 -62 35 hvcurveto
          -31 -43 -30 -43 -30 -44 16 -11 rcurveline
          28 41 28 42 29 40 6 -9 5 -9 6 -8 rrcurveto
          -57 39 27 -4 25 hhcurveto
          74 35 95 113 43 -46 callgsubr
          -84 -32 -37 -104 -55 hhcurveto
          -33 -27 44 55 -30 hvcurveto
          42 58 42 56 41 54 rrcurveto
          endchar
        </CharString>
        <CharString name="y">
          -97 callgsubr
          endchar
        </CharString>
        <CharString name="yacute">
          -97 callgsubr
          137 739 -79 callgsubr
        </CharString>
        <CharString name="ycircumflex">
          -97 callgsubr
          162 649 -82 callsubr
        </CharString>
        <CharString name="ydieresis">
          -97 callgsubr
          2 676 -96 callgsubr
        </CharString>
        <CharString name="yen">
          240 215 53 rmoveto
          155 hlineto
          -2 -21 -2 -20 -4 -19 rrcurveto
          -147 -19 143 hlineto
          -76 -16 -30 -53 -63 hhcurveto
          -40 -29 11 17 -19 hvcurveto
          -11 -16 rlineto
          -18 22 35 -13 42 hhcurveto
          80 46 64 84 26 hvcurveto
          121 19 -116 hlineto
          6 19 4 20 4 21 rrcurveto
          102 19 -99 hlineto
          14 89 2 93 2 56 rrcurveto
          57 103 29 120 45 vvcurveto
          27 -17 1 -5 -35 -58 -63 -281 -27 vhcurveto
          -54 -41 -50 -38 -56 hhcurveto
          -74 -40 54 109 176 159 127 1 2 hvcurveto
          -8 11 rlineto
          -36 -25 -170 -125 -193 vvcurveto
          -116 71 -50 77 65 55 35 51 44 vhcurveto
          -3 -53 -3 -52 -4 -49 rrcurveto
          -157 hlineto
          287 515 rmoveto
          4 2 -4 -4 -42 -23 -91 -41 -85 hvcurveto
          148 12 27 78 19 hhcurveto
          endchar
        </CharString>
        <CharString name="ygrave">
          -97 callgsubr
          10 710 -55 callgsubr
        </CharString>
        <CharString name="z">
          -97 callsubr
          endchar
        </CharString>
        <CharString name="zacute">
          -97 callsubr
          195 733 -79 callgsubr
        </CharString>
        <CharString name="zcaron">
          -97 callsubr
          200 731 -65 callsubr
        </CharString>
        <CharString name="zdotaccent">
          -97 callsubr
          97 672 -64 callsubr
        </CharString>
        <CharString name="zero">
          227 312 635 rmoveto
          -172 -106 -184 -177 -191 122 -100 121 177 74 185 166 180 -88 75 -75 -55 -43 -37 -68 -20 hvcurveto
          19 -5 rlineto
          60 17 36 32 47 hhcurveto
          66 77 -72 -165 -189 -93 -137 -115 -126 -82 108 180 177 81 144 138 hvcurveto
          23 14 -7 2 hhcurveto
          8 17 rlineto
          -2 -17 8 -28 hhcurveto
          endchar
        </CharString>
      <CharString index="0">
        -91 callgsubr
        25 26 5 10 33 -105 callsubr
        return
      </CharString>
      <CharString index="1">
        408 681 312 rmoveto
        -104 callsubr
        -38 callgsubr
        vhcurveto
        -215 46 rmoveto
        -34 callgsubr
        -51 callgsubr
        return
      </CharString>
      <CharString index="2">
        -42 callsubr
        vhcurveto
        -19 1 rlineto
        -106 callsubr
        return
      </CharString>
      <CharString index="3">
        20 168 44 rmoveto
        -69 callgsubr
        70 42 51 64 18 vhcurveto
        -71 callgsubr
        118 -50 33 -46 -58 -24 -52 -46 -82 61 -57 80 vhcurveto
        -52 callsubr
        42 33 -31 -100 3 hvcurveto
        -33 callgsubr
        -69 -55 48 76 44 27 31 35 hvcurveto
        return
      </CharString>
      <CharString index="4">
        148 29 rmoveto
        -65 29 65 -15 51 hhcurveto
        141 158 153 242 -76 callgsubr
        hvcurveto
        -93 callsubr
        return
      </CharString>
      <CharString index="5">
        -137 -52 -24 -36 -29 hhcurveto
        -25 -9 16 51 32 9 40 6 17 hvcurveto
        -30 10 rlineto
        -10 -29 -5 -30 -21 vvcurveto
        -54 -18 -33 -49 -41 hhcurveto
        -40 -26 36 67 135 82 59 41 27 20 -17 -31 -55 -55 -20 -4 hvcurveto
        6 -19 rlineto
        20 8 53 27 60 vvcurveto
        50 -35 16 -36 -63 -104 -83 -129 -85 49 -39 53 50 32 31 45 21 vhcurveto
        -43 5 23 -20 29 hhcurveto
        return
      </CharString>
      <CharString index="6">
        315 -103 callgsubr
        return
      </CharString>
      <CharString index="7">
        151 178 158 rmoveto
        -17 1 -16 3 -15 vhcurveto
        -50 -16 -25 -19 -25 hhcurveto
        -35 -15 50 53 hvcurveto
        87 33 54 1 vvcurveto
        -17 11 rlineto
        -33 -33 -21 -56 -53 vvcurveto
        -104 55 -30 30 27 31 11 46 21 vhcurveto
        -36 15 28 -25 45 hhcurveto
        40 28 26 37 18 hvcurveto
        -6 12 14 -4 16 hhcurveto
        71 31 103 61 23 -46 callgsubr
        -57 -23 -26 -92 -56 hhcurveto
        -14 -12 4 7 -9 hvcurveto
        12 34 5 40 38 vvcurveto
        63 -15 36 -25 -16 -30 -17 -79 -50 15 -48 29 -26 vhcurveto
        -32 -13 -20 -23 -28 hhcurveto
        -56 -27 83 138 10 hvcurveto
        -20 hlineto
        -3 -10 -14 -40 -50 vvcurveto
        161 73 rmoveto
        44 10 17 3 4 10 -13 -40 4 vhcurveto
        1 -9 0 -9 -9 vvcurveto
        -28 -4 -34 -8 -30 vhcurveto
        -18 31 -2 49 31 vvcurveto
        return
      </CharString>
      <CharString index="8">
        404 479 -76 rmoveto
        136 57 78 77 63 -30 38 -49 33 hvcurveto
        -10 -14 rlineto
        31 -20 19 -38 -35 vvcurveto
        -82 -61 -51 -94 -104 -117 58 22 -84 vhcurveto
        135 149 135 260 126 140 rrcurveto
        -2 13 13 0 13 hhcurveto
        52 41 16 34 18 -15 17 -23 -26 -35 -18 -38 -35 hvcurveto
        -1 -2 -2 -1 -1 -1 rrcurveto
        21 -85 -94 67 -123 hhcurveto
        -100 -75 -49 -105 -36 hvcurveto
        14 -6 rlineto
        46 25 48 63 118 hhcurveto
        97 101 -42 -15 93 hvcurveto
        -119 -141 -168 -288 -108 -118 rrcurveto
        3 -11 -11 1 -10 hhcurveto
        -53 -26 -28 -22 -5 1 -25 34 26 23 19 33 31 hvcurveto
        -27 77 142 -83 105 hhcurveto
        110 699 rmoveto
        27 26 31 15 16 hhcurveto
        14 6 -7 -8 -15 -22 -16 -50 -8 -8 0 1 -8 hvcurveto
        -454 -582 rmoveto
        -23 -20 -17 -14 -20 hhcurveto
        -11 -5 5 6 12 20 19 40 4 5 -1 -2 6 hvcurveto
        return
      </CharString>
      <CharString index="9">
        104 -45 rmoveto
        -79 callsubr
        89 -15 89 74 -67 callgsubr
        vhcurveto
        -83 19 -84 -89 -49 callgsubr
        hvcurveto
        6 19 -50 callsubr
        return
      </CharString>
      <CharString index="10">
        46 222 11 rmoveto
        -17 vlineto
        -6 -3 -6 -3 -6 -4 rrcurveto
        -83 -46 -78 -56 -75 vvcurveto
        -43 30 -44 48 42 94 60 214 6 vhcurveto
        74 53 40 55 51 132 -18 callsubr
        -49 -124 -41 -54 -56 -40 4 86 12 112 26 113 -18 5 rcurveline
        -19 -35 -18 -51 -12 -64 rrcurveto
        -75 -36 -36 -55 -39 hhcurveto
        -36 -21 36 54 73 32 93 2 4 -22 callgsubr
        0 -58 -84 -96 vvcurveto
        -92 54 -14 32 39 35 18 73 40 vhcurveto
        -4 -36 -2 -39 -42 vvcurveto
        -100 -271 rmoveto
        -26 -18 28 24 68 71 59 66 42 hvcurveto
        2 2 2 1 2 1 rrcurveto
        -161 -8 -49 -64 -42 hhcurveto
        return
      </CharString>
      <CharString index="11">
        rmoveto
        -12 9 -10 13 -68 callsubr
        -13 -9 -10 -13 vhcurveto
        97 hmoveto
        -12 10 -10 12 -68 callsubr
        -12 -10 -10 -13 vhcurveto
        endchar
      </CharString>
      <CharString index="12">
        -58 callsubr
        -206 134 -134 183 128 118 70 115 62 hvcurveto
        -91 callsubr
        return
      </CharString>
      <CharString index="13">
        371 463 -91 rmoveto
        1 9 153 913 351 55 -8 41 rcurveline
        -303 -45 -164 -720 -40 -200 rrcurveto
        -20 65 -5 62 56 122 16 95 53 vvcurveto
        39 -12 21 -13 -92 -126 -288 -158 -62 vhcurveto
        16 79 21 170 126 vvcurveto
        238 -135 75 -11 5 vhcurveto
        -10 -12 rlineto
        1 -1 107 -100 -310 vvcurveto
        -319 -23 -42 -2 -7 vhcurveto
        16 -10 rlineto
        200 72 137 296 41 hhcurveto
        13 3 -13 -22 hvcurveto
        -43 -11 -73 -68 vvcurveto
        -172 75 -119 1 vhcurveto
        1 vlineto
        return
      </CharString>
      <CharString index="14">
        -18 -6 rlineto
        7 -35 44 -131 -189 vvcurveto
        -168 -39 -339 -216 -137 -86 99 191 238 113 179 11 21 vhcurveto
        -16 10 rlineto
        -31 -49 -141 -174 -243 vvcurveto
        return
      </CharString>
      <CharString index="15">
        456 -98 callgsubr
        return
      </CharString>
      <CharString index="16">
        253 47 183 rmoveto
        110 hlineto
        -205 -102 -114 -69 -69 callsubr
        199 hlineto
        -168 1 30 -142 179 hhcurveto
        return
      </CharString>
      <CharString index="17">
        -61 callgsubr
        118 54 147 163 -85 callgsubr
        return
      </CharString>
      <CharString index="18">
        -72 callsubr
        -37 vlineto
        -76 -82 callgsubr
        return
      </CharString>
      <CharString index="19">
        rmoveto
        -19 -19 37 -27 hhcurveto
        -36 -10 -40 -19 hvcurveto
        15 hlineto
        7 1 6 30 22 19 20 -37 27 hhcurveto
        35 11 39 20 hvcurveto
        -15 hlineto
        -8 -1 -5 -29 -24 hhcurveto
        endchar
      </CharString>
      <CharString index="20">
        441 313 -81 rmoveto
        188 77 138 181 hvcurveto
        -70 callsubr
        -59 callgsubr
        rrcurveto
        -150 -2 17 -276 -225 -40 callsubr
        vhcurveto
        return
      </CharString>
      <CharString index="21">
        120 42 126 95 40 -46 callgsubr
        -112 -44 -42 -88 -80 hhcurveto
        -66 -55 45 105 128 61 38 43 10 11 -3 -6 9 hvcurveto
        -29 -26 -21 -27 -39 vvcurveto
        79 35 rmoveto
        -22 -7 -42 -29 -12 -11 11 18 34 20 25 24 21 vhcurveto
        9 -11 6 -15 -19 vvcurveto
        return
      </CharString>
      <CharString index="22">
        186 -54 272 -129 138 hvcurveto
        -13 -14 rlineto
        121 -131 56 -277 -174 vvcurveto
        -194 -69 -72 -55 -169 -52 430 333 -68 vhcurveto
        -19 -2 rlineto
        -1 -3 -163 -18 -245 vhcurveto
        -18 -251 -119 -149 -15 -17 rrcurveto
        return
      </CharString>
      <CharString index="23">
        rmoveto
        -14 -2 -7 -32 -47 hhcurveto
        -45 -7 32 14 -3 hvcurveto
        -15 hlineto
        -23 13 -48 57 55 16 42 29 vhcurveto
        endchar
      </CharString>
      <CharString index="24">
        462 461 738 rmoveto
        -21 -61 -23 -88 -47 hvcurveto
        -1 -11 -10 -2 -9 hhcurveto
        -99 -6 -79 6 -76 -78 15 -12 rcurveline
        77 77 90 -15 92 10 rrcurveto
        -29 -62 -21 -90 -128 vvcurveto
        -26 vlineto
        1 -10 -10 1 -10 hhcurveto
        -35 -29 -13 -30 -14 10 -33 85 -14 hvcurveto
        -26 vlineto
        -122 -11 -170 -160 -47 -47 15 29 -36 vhcurveto
        -12 -15 rlineto
        -32 41 51 -16 52 hhcurveto
        187 40 150 176 hvcurveto
        6 24 vlineto
        18 18 0 2 18 hvcurveto
        27 -36 24 -46 25 -58 rrcurveto
        -123 51 52 -117 133 hhcurveto
        52 40 23 1 1 hvcurveto
        -6 14 rlineto
        -6 -18 -16 -2 -15 hhcurveto
        -143 -56 220 134 -116 hvcurveto
        122 20 110 70 43 187 24 106 39 123 97 23 -6 13 rcurveline
        -38 -8 -117 -36 -57 -230 -29 -118 -78 -97 -131 -30 -27 27 -31 22 -36 14 rrcurveto
        -1 55 -2 54 48 vvcurveto
        74 11 55 16 41 vhcurveto
        56 13 83 33 51 vvcurveto
        18 -13 11 -18 vhcurveto
        -19 vmoveto
        9 3 -6 -5 -35 -56 -26 -54 -14 hvcurveto
        70 35 49 16 14 hhcurveto
        -220 -436 rmoveto
        10 11 -1 -1 10 hvcurveto
        -21 1 -21 -22 vvcurveto
        -47 8 -28 18 17 vvcurveto
        11 10 12 33 vhcurveto
        150 -67 rmoveto
        -3 -19 -19 -1 -21 hhcurveto
        -1 hlineto
        17 -1 17 17 vvcurveto
        22 -11 20 -16 19 -20 rrcurveto
        return
      </CharString>
      <CharString index="25">
        vlineto
        -86 -33 -93 -90 -65 -32 40 52 40 33 35 37 17 18 -9 -19 15 vhcurveto
        16 12 rlineto
        23 -20 -22 13 -23 hhcurveto
        -47 -43 -43 -55 -61 40 -47 76 hvcurveto
        28 276 rmoveto
        -63 -28 45 63 128 94 64 50 40 21 -29 -31 9 hvcurveto
        -11 -40 -11 -56 -4 -76 rrcurveto
        -38 -20 -33 -30 -44 hhcurveto
        return
      </CharString>
      <CharString index="26">
        51 rmoveto
        84 38 124 59 22 -46 callgsubr
        -46 -16 -43 -117 -56 -57 callsubr
        return
      </CharString>
      <CharString index="27">
        -69 -24 -47 -140 -88 hhcurveto
        -47 -43 -70 callgsubr
        return
      </CharString>
      <CharString index="28">
        rmoveto
        -107 -88 9 -12 117 71 rlineto
        endchar
      </CharString>
      <CharString index="29">
        408 135 -108 rmoveto
        15 24 18 27 19 29 rrcurveto
        -31 47 57 -18 63 hhcurveto
        -38 callgsubr
        hvcurveto
        -72 callgsubr
        -14 59 -25 56 -43 37 22 34 21 33 20 31 -17 10 rcurveline
        -19 -30 -21 -32 -22 -34 rrcurveto
        20 -30 -37 13 -46 hhcurveto
        -92 -92 -62 -109 -68 49 -51 70 -19 hvcurveto
        -68 -105 -68 -106 -59 -93 rrcurveto
        -63 66 -31 104 113 vvcurveto
        -73 callgsubr
        -123 48 -104 81 -62 vhcurveto
        -18 -29 -18 -28 -16 -25 rrcurveto
        333 419 rmoveto
        -68 callgsubr
        -70 -56 24 38 -43 vhcurveto
        60 93 71 110 71 111 rrcurveto
        -2 12 13 0 13 hhcurveto
        -134 167 rmoveto
        68 47 62 93 41 33 -12 -19 27 vhcurveto
        -45 -69 -49 -76 -50 -78 rrcurveto
        -72 19 -25 58 47 vvcurveto
        149 -130 rmoveto
        -11 -10 0 1 -9 hvcurveto
        48 75 46 72 44 68 40 -36 24 -55 12 -59 rrcurveto
        -46 -55 -65 -20 -64 hhcurveto
        return
      </CharString>
      <CharString index="30">
        443 148 216 rmoveto
        -71 callsubr
        187 59 174 1 2 vhcurveto
        -16 7 -60 -120 -37 -124 -1 -134 rlinecurve
        -17 callgsubr
        -5 68 -5 67 59 -14 callsubr
        -39 callsubr
        -20 -52 -14 -70 -93 vvcurveto
        -45 1 -50 3 -49 vhcurveto
        -61 -15 -34 -19 -2 -1 rrcurveto
        276 522 -19 callsubr
        return
      </CharString>
      <CharString index="31">
        295 -189 52 -104 -125 -134 -107 -149 -165 109 -67 113 66 54 22 44 53 return
      </CharString>
      <CharString index="32">
        rmoveto
        30 16 -25 -29 -59 -51 -42 -46 -22 -16 3 3 -8 hvcurveto
        84 49 65 48 vhcurveto
        return
      </CharString>
      <CharString index="33">
        5 -13 5 -12 4 -10 16 2 rcurveline
        -2 12 -2 11 -2 12 rrcurveto
        176 22 259 157 309 vvcurveto
        175 -107 96 -180 -225 -94 -128 -4 -3 vhcurveto
        16 -11 rlineto
        0 91 124 215 110 120 -72 -177 -201 -144 -246 -236 -25 vhcurveto
        -8 69 -4 69 66 vvcurveto
        return
      </CharString>
      <CharString index="34">
        277 217 116 60 25 vhcurveto
        -6 16 rlineto
        -41 -16 -291 -113 -339 vvcurveto
        return
      </CharString>
      <CharString index="35">
        33 -3 36 -7 36 vhcurveto
        38 37 32 45 24 50 -18 7 rcurveline
        -22 -48 -27 -38 -31 -30 return
      </CharString>
      <CharString index="36">
        48 7 44 29 28 74 -18 callsubr
        -19 -48 -27 -38 -51 -10 rrcurveto
        5 21 2 22 22 vvcurveto
        return
      </CharString>
      <CharString index="37">
        35 81 -7 hvcurveto
        -2 10 14 -2 15 hhcurveto
        62 59 49 72 42 -26 30 -40 return
      </CharString>
      <CharString index="38">
        -50 -59 34 106 54 29 57 29 27 hvcurveto
        -42 callgsubr
        -105 65 -47 59 return
      </CharString>
      <CharString index="39">
        76 69 31 49 58 hvcurveto
        5 -30 2 -31 -28 vvcurveto
        -301 -201 -64 -80 return
      </CharString>
      <CharString index="40">
        vvcurveto
        112 77 125 137 78 49 -52 -65 -52 -32 -46 0 vhcurveto
        15 -11 rlineto
        2 3 34 50 60 vvcurveto
        66 -57 66 -90 -89 -179 -43 -282 return
      </CharString>
      <CharString index="41">
        203 632 rmoveto
        -78 callsubr
        -75 -646 rmoveto
        125 194 145 224 -30 callsubr
        -146 -218 -133 -209 rrcurveto
        374 1 callsubr
        -78 callsubr
        return
      </CharString>
      <CharString index="42">
        389 74 318 rmoveto
        100 hlineto
        -2 -25 0 -26 -28 -52 callgsubr
        6 6 0 1 6 vhcurveto
        -74 callgsubr
        51 1 47 2 42 vhcurveto
        151 19 -149 hlineto
        9 142 18 88 9 42 -14 3 rcurveline
        -19 -36 -45 -85 -14 -154 rrcurveto
        -102 hlineto
        endchar
      </CharString>
      <CharString index="43">
        vhcurveto
        19 -3 rlineto
        1 52 175 79 80 vhcurveto
        10 10 14 8 13 hhcurveto
        16 15 -10 -29 -44 -23 -38 -48 -19 hvcurveto
        -19 -8 -26 9 -25 vvcurveto
        -3 2 -7 2 -4 vhcurveto
        -79 32 49 -11 29 hhcurveto
        73 47 85 117 43 -46 callgsubr
        -120 -44 -44 -60 -51 hhcurveto
        -48 -30 49 25 -5 hvcurveto
        55 14 66 34 65 vvcurveto
        39 -31 34 -37 -79 return
      </CharString>
      <CharString index="44">
        39 217 600 rmoveto
        34 -15 28 -34 -41 -43 -48 -141 -18 vhcurveto
        -22 -171 -4 -148 -74 vvcurveto
        -33 1 -18 0 -64 callgsubr
        -57 -147 -69 -29 vhcurveto
        4 36 4 44 4 48 rrcurveto
        64 143 74 134 92 vvcurveto
        -44 42 rmoveto
        23 2 -26 -16 -66 -65 -140 -48 -101 hvcurveto
        168 16 24 181 48 hhcurveto
        return
      </CharString>
      <CharString index="45">
        215 576 783 -85 callsubr
        return
      </CharString>
      <CharString index="46">
        357 1 -120 rmoveto
        93 76 54 129 13 224 6 109 8 93 3 70 rrcurveto
        -276 24 52 -391 188 hhcurveto
        return
      </CharString>
      <CharString index="47">
        -48 callsubr
        -26 hmoveto
        -48 callgsubr
        return
      </CharString>
      <CharString index="48">
        -162 -89 -93 -112 -115 98 -56 82 120 65 91 2 hvcurveto
        -15 11 rlineto
        -1 -1 -54 -77 -86 hhcurveto
        -90 -65 68 92 79 58 92 155 95 93 -76 -30 91 hvcurveto
        -32 -54 -26 -72 -1 -92 return
      </CharString>
      <CharString index="49">
        191 346 rmoveto
        -44 callsubr
        81 144 52 216 76 vvcurveto
        48 -16 25 -29 -40 -70 -74 -257 -14 vhcurveto
        8 -13 -21 9 -28 hhcurveto
        -43 -303 -36 callgsubr
        255 544 rmoveto
        -80 -49 -188 -67 -132 vhcurveto
        22 vlineto
        242 38 189 54 22 2 -33 -20 vhcurveto
        return
      </CharString>
      <CharString index="50">
        53 208 551 rmoveto
        39 -19 25 -30 -23 -65 -17 -205 -17 vhcurveto
        -12 -140 -2 -100 -61 -42 1 -15 -6 vvcurveto
        19 -3 rlineto
        68 27 63 190 80 hhcurveto
        17 6 -13 -14 hvcurveto
        -51 -32 -74 -44 vvcurveto
        -41 14 -30 49 81 37 130 87 33 -31 callgsubr
        -48 -18 -49 -149 -55 hhcurveto
        -26 -8 16 20 hvcurveto
        50 30 64 47 vvcurveto
        36 -23 28 -35 -76 -62 -140 -64 -26 vhcurveto
        2 32 2 32 3 31 rrcurveto
        73 152 60 123 82 -3 callsubr
        -71 -48 -116 -61 -118 hvcurveto
        194 14 16 155 51 hhcurveto
        return
      </CharString>
      <CharString index="51">
        -36 -32 10 18 -24 hvcurveto
        7 24 24 4 24 hhcurveto
        return
      </CharString>
      <CharString index="52">
        rmoveto
        117 -71 9 12 -107 88 rlineto
        endchar
      </CharString>
      <CharString index="53">
        65 64 71 -41 callgsubr
        rrcurveto
        -93 -533 rmoveto
        -64 -19 -26 -31 -28 hhcurveto
        -26 -17 24 23 return
      </CharString>
      <CharString index="54">
        rmoveto
        125 194 130 204 -30 callsubr
        -131 -198 -133 -209 rrcurveto
        return
      </CharString>
      <CharString index="55">
        vvcurveto
        -117 19 -89 20 -61 vhcurveto
        -4 -4 -1 -4 hhcurveto
        -97 -38 69 66 41 15 38 20 26 hvcurveto
        -9 9 rlineto
        -39 -39 -21 -48 -44 vvcurveto
        -86 69 -51 100 return
      </CharString>
      <CharString index="56">
        116 55 -93 -101 22 hvcurveto
        -46 -55 -65 -20 -64 hhcurveto
        return
      </CharString>
      <CharString index="57">
        rmoveto
        -59 callsubr
        return
      </CharString>
      <CharString index="58">
        vvcurveto
        -21 -2 -20 -4 -18 vhcurveto
        21 -35 -41 15 -49 hhcurveto
        -69 -42 -35 -56 -50 42 -37 62 return
      </CharString>
      <CharString index="59">
        -6 -5 -5 -10 -10 -7 6 7 7 6 4 9 11 6 -7 -6 vhcurveto
        return
      </CharString>
      <CharString index="60">
        132 rmoveto
        19 1 19 2 19 5 -3 17 rcurveline
        -17 -5 -18 -2 -18 -1 11 225 rcurveline
        -18 hlineto
        -3 -77 -7 -71 -13 -75 rrcurveto
        7 -44 -33 14 -52 hhcurveto
        -9 -17 -1 -1 -6 hvcurveto
        45 89 27 121 1 6 -18 1 rcurveline
        0 -51 -165 -59 -67 vhcurveto
        1 -1 17 -20 9 -8 rrcurveto
        12 24 26 4 28 hhcurveto
        34 33 -10 -1 41 hvcurveto
        -8 -43 -8 -42 -11 -42 54 -1 rcurveline
        return
      </CharString>
      <CharString index="61">
        hvcurveto
        -41 callsubr
        return
      </CharString>
      <CharString index="62">
        -62 81 276 rmoveto
        20 -43 59 -35 -88 vvcurveto
        -43 -20 -23 callsubr
        return
      </CharString>
      <CharString index="63">
        -17 callsubr
        -68 -48 -86 -34 -97 -2 callsubr
        49 77 68 195 vhcurveto
        -54 callgsubr
        83 75 31 52 41 hvcurveto
        -1 -48 -3 -34 -7 -25 rrcurveto
        return
      </CharString>
      <CharString index="64">
        -179 46 -44 57 81 40 132 71 27 vhcurveto
        -13 callsubr
        -65 -10 112 72 -1 hvcurveto
        return
      </CharString>
      <CharString index="65">
        -7 12 rlineto
        -47 -38 -35 -66 -69 vvcurveto
        return
      </CharString>
      <CharString index="66">
        103 41 112 -18 callsubr
        -36 -99 -62 -92 -58 -59 9 212 21 118 3 21 return
      </CharString>
      <CharString index="67">
        rmoveto
        28 5 10 59 38 hhcurveto
        26 11 -22 -26 -80 -55 -99 -71 -123 hvcurveto
        14 120 15 110 7 33 rrcurveto
        return
      </CharString>
      <CharString index="68">
        36 22 -12 -10 -9 -14 -8 -24 return
      </CharString>
      <CharString index="69">
        197 129 145 244 1 return
      </CharString>
      <CharString index="70">
        -74 callsubr
        109 -11 -74 callsubr
        endchar
      </CharString>
      <CharString index="71">
        rmoveto
        -44 -29 49 61 128 78 46 44 30 18 -14 -6 7 hvcurveto
        -1 -23 0 -24 -25 vvcurveto
        -39 1 -35 4 -30 vhcurveto
        -53 -34 -38 -35 -36 hhcurveto
        return
      </CharString>
      <CharString index="72">
        vvcurveto
        -36 28 -9 25 26 24 13 10 16 vhcurveto
        return
      </CharString>
      <CharString index="73">
        -111 -38 73 57 68 47 62 93 return
      </CharString>
      <CharString index="74">
        -26 -2 -22 -5 -20 vhcurveto
        -9 hlineto
        return
      </CharString>
      <CharString index="75">
        rrcurveto
        142 58 43 61 51 hhcurveto
        23 19 -21 -50 -43 -17 -59 -30 -38 hvcurveto
        9 -19 -20 10 -22 hhcurveto
        -28 -25 -15 -26 -11 8 -24 40 32 27 10 17 22 hvcurveto
        -5 13 13 -3 13 hhcurveto
        81 48 124 64 25 -46 callgsubr
        -53 -23 -47 -120 -64 hhcurveto
        return
      </CharString>
      <CharString index="76">
        vhcurveto
        -41 callsubr
        return
      </CharString>
      <CharString index="77">
        -16 19 20 16 16 20 vhcurveto
        return
      </CharString>
      <CharString index="78">
        hhcurveto
        -35 -19 67 7 callgsubr
        45 94 93 176 123 vvcurveto
        return
      </CharString>
      <CharString index="79">
        41 -23 25 -36 -41 -23 -38 -33 -11 vhcurveto
        -23 -68 -59 -356 -194 vvcurveto
        -84 return
      </CharString>
      <CharString index="80">
        -28 callgsubr
        7 -171 107 53 27 64 83 return
      </CharString>
      <CharString index="81">
        125 61 11 124 14 121 vhcurveto
        72 123 79 128 99 vvcurveto
        return
      </CharString>
      <CharString index="82">
        -46 19 -39 31 -28 vhcurveto
        return
      </CharString>
      <CharString index="83">
        rmoveto
        -18 3 rlineto
        -24 -55 -53 -51 0 vvcurveto
        14 -12 1 1 32 35 26 43 rlinecurve
        -64 -352 47 -2 rlineto
        return
      </CharString>
      <CharString index="84">
        -2 -99 -2 rrcurveto
        -20 vlineto
        114 -5 return
      </CharString>
      <CharString index="85">
        hvcurveto
        -18 6 rlineto
        return
      </CharString>
      <CharString index="86">
        19 -16 16 -20 -19 return
      </CharString>
      <CharString index="87">
        rmoveto
        17 22 -148 122 148 122 -17 22 -174 -144 rlineto
        return
      </CharString>
      <CharString index="88">
        -27 callgsubr
        62 -14 75 -21 54 vhcurveto
        return
      </CharString>
      <CharString index="89">
        36 -47 hhcurveto
        -41 -23 -24 -13 -15 hvcurveto
        -23 vlineto
        15 15 30 20 27 44 return
      </CharString>
      <CharString index="90">
        -1 -19 -22 -1 -24 -28 -86 5 -34 hhcurveto
        -33 -30 -3 -3 -26 hvcurveto
        return
      </CharString>
      <CharString index="91">
        vvcurveto
        101 212 rmoveto
        -19 -8 10 7 9 8 12 25 14 15 -8 -8 18 hvcurveto
        -14 -15 -18 -8 -20 hhcurveto
        endchar
      </CharString>
      <CharString index="92">
        vvcurveto
        -136 -29 -146 -140 return
      </CharString>
      <CharString index="93">
        13 309 240 rmoveto
        -93 4 -17 -2 -99 -2 rrcurveto
        -34 vlineto
        114 -5 15 -8 callgsubr
        endchar
      </CharString>
      <CharString index="94">
        rmoveto
        -22 -11 7 9 12 14 7 17 24 24 -9 -10 25 hvcurveto
        -11 -22 -24 -5 -25 hhcurveto
        endchar
      </CharString>
      <CharString index="95">
        -13 14 rlineto
        return
      </CharString>
      <CharString index="96">
        65 48 122 90 31 return
      </CharString>
      <CharString index="97">
        hhcurveto
        -11 callgsubr
        -46 callgsubr
        -116 -42 -38 -75 -8 callsubr
        -19 return
      </CharString>
      <CharString index="98">
        rmoveto
        -19 16 -16 20 19 17 16 19 20 -17 16 -19 -20 -16 -16 -20 vhcurveto
        endchar
      </CharString>
      <CharString index="99">
        2 80 3 rrcurveto
        return
      </CharString>
      <CharString index="100">
        3 callsubr
        9 10 -14 -24 9 vhcurveto
        -20 1 -18 13 12 vvcurveto
        return
      </CharString>
      <CharString index="101">
        rmoveto
        100 -4 87 4 0 vvcurveto
        20 vlineto
        -87 5 -100 -5 0 vvcurveto
        endchar
      </CharString>
      <CharString index="102">
        -8 -7 1 3 -7 hvcurveto
        34 36 17 54 53 vvcurveto
        57 -31 44 -48 return
      </CharString>
      <CharString index="103">
        rmoveto
        -45 hlineto
        -12 -174 rlineto
        19 hlineto
        return
      </CharString>
      <CharString index="104">
        hlineto
        200 216 100 202 165 -140 78 -159 return
      </CharString>
      <CharString index="105">
        23 vlineto
        -15 -15 -26 -20 -34 -55 return
      </CharString>
      <CharString index="106">
        0 vhcurveto
        19 return
      </CharString>
      <CharString index="107">
        447 rmoveto
        return
      </CharString>
      <CharString index="108">
        hvcurveto
        -12 callgsubr
        return
      </CharString>
      <CharString index="109">
        234 rmoveto
        return
      </CharString>
      <CharString index="110">
        1 -22 callgsubr
        return
      </CharString>
      <CharString index="111">
        35 hvcurveto
        19 return
      </CharString>
      <CharString index="112">
        rmoveto
        -77 -19 -24 -23 -22 -11 24 29 return
      </CharString>
      <CharString index="113">
        -30 callgsubr
        endchar
      </CharString>
      <CharString index="114">
        107 -6 hvcurveto
        return
      </CharString>
</ttFont>
